<svg width="504" height="38" viewBox="0 0 504 38" fill="none" xmlns="http://www.w3.org/2000/svg">
<g filter="url(#filter0_in_2063_1154)">
<path d="M18.3 1.85C20.9333 1.85 23.1333 2.15 24.9 2.75C26.7 3.35 28.05 4.25 28.95 5.45C29.8833 6.61667 30.35 8.1 30.35 9.9C30.35 11.3667 30 12.6333 29.3 13.7C28.6333 14.7333 27.75 15.5833 26.65 16.25C25.5833 16.9167 24.4 17.4333 23.1 17.8C21.8 18.1333 20.5333 18.3333 19.3 18.4V18.75C20.9 18.8167 22.45 19.0167 23.95 19.35C25.4833 19.65 26.85 20.15 28.05 20.85C29.2833 21.55 30.25 22.4667 30.95 23.6C31.6833 24.7333 32.05 26.1167 32.05 27.75C32.05 29.35 31.75 30.7667 31.15 32C30.55 33.2 29.6667 34.1833 28.5 34.95C27.3333 35.7167 25.8667 36.3 24.1 36.7C22.3667 37.0667 20.35 37.25 18.05 37.25H-2.86102e-06V36.75L2.9 36V3.1L-2.86102e-06 2.35V1.85H18.3ZM16.65 2.65C15.15 2.65 13.8667 2.68333 12.8 2.75C11.7333 2.78333 10.8833 2.85 10.25 2.95V36.15C11.3167 36.4167 13.4667 36.55 16.7 36.55C18.3667 36.55 19.8333 36.25 21.1 35.65C22.4 35.0167 23.4 34.0333 24.1 32.7C24.8 31.3333 25.15 29.5333 25.15 27.3C25.15 24.4667 24.4333 22.3833 23 21.05C21.5667 19.7167 19.3167 19.05 16.25 19.05L9.9 18.9V18.4L16.25 18.25C17.95 18.2167 19.35 17.8833 20.45 17.25C21.5833 16.5833 22.4333 15.6333 23 14.4C23.6 13.1667 23.9 11.6667 23.9 9.9C23.9 7.6 23.2833 5.81666 22.05 4.55C20.8167 3.28333 19.0167 2.65 16.65 2.65ZM49.8734 11.5C52.6401 11.5 54.9234 12.05 56.7234 13.15C58.5234 14.25 59.8734 15.7167 60.7734 17.55C61.6734 19.3833 62.1234 21.45 62.1234 23.75H43.1734V23.25L55.6234 22.6C55.6234 20.3667 55.4234 18.4667 55.0234 16.9C54.6234 15.3333 53.9901 14.15 53.1234 13.35C52.2901 12.5167 51.1901 12.1 49.8234 12.1C48.4901 12.1 47.3234 12.5333 46.3234 13.4C45.3568 14.2667 44.6068 15.5833 44.0734 17.35C43.5734 19.0833 43.3234 21.3167 43.3234 24.05C43.3234 25.55 43.5068 27 43.8734 28.4C44.2734 29.7667 44.8401 31.0167 45.5734 32.15C46.3401 33.25 47.2734 34.1333 48.3734 34.8C49.4734 35.4333 50.7568 35.75 52.2234 35.75C53.1234 35.75 54.0234 35.6167 54.9234 35.35C55.8234 35.0833 56.6734 34.7 57.4734 34.2C58.2734 33.7 59.0068 33.1 59.6734 32.4C60.3401 31.6667 60.8901 30.8167 61.3234 29.85L61.8734 30.35C61.1068 31.9167 60.2234 33.2 59.2234 34.2C58.2568 35.2 57.2068 35.9833 56.0734 36.55C54.9401 37.0833 53.7901 37.45 52.6234 37.65C51.4568 37.8833 50.3068 38 49.1734 38C47.1068 38 45.2734 37.65 43.6734 36.95C42.0734 36.25 40.7068 35.3 39.5734 34.1C38.4734 32.8667 37.6234 31.4833 37.0234 29.95C36.4568 28.3833 36.1734 26.7667 36.1734 25.1C36.1734 23 36.5068 21.1167 37.1734 19.45C37.8734 17.7833 38.8234 16.3667 40.0234 15.2C41.2568 14 42.7068 13.0833 44.3734 12.45C46.0401 11.8167 47.8734 11.5 49.8734 11.5ZM96.5098 36.75V37.25H84.3598V36.75L86.8098 36.25V19.3C86.8098 17.5333 86.5098 16.2 85.9098 15.3C85.3098 14.4 84.4431 13.95 83.3098 13.95C82.5431 13.95 81.7598 14.25 80.9598 14.85C80.1598 15.4167 79.4098 16.1667 78.7098 17.1C78.0098 18 77.3764 18.9333 76.8098 19.9C76.2431 20.8667 75.7931 21.75 75.4598 22.55V36.25L77.9098 36.75V37.25H65.7598V36.75L68.4598 36.25V2.35H65.5098V1.8L75.4598 -3.21865e-06V19.7L75.8598 20.05C76.6931 18.35 77.6264 16.8667 78.6598 15.6C79.7264 14.3 80.8931 13.3 82.1598 12.6C83.4598 11.8667 84.9098 11.5 86.5098 11.5C87.8764 11.5 89.0264 11.7167 89.9598 12.15C90.8931 12.55 91.6264 13.15 92.1598 13.95C92.7264 14.7167 93.1431 15.65 93.4098 16.75C93.6764 17.8167 93.8098 19 93.8098 20.3V36.25L96.5098 36.75ZM105.401 7.75C104.435 7.75 103.568 7.61666 102.801 7.35C102.068 7.05 101.485 6.65 101.051 6.15C100.618 5.61667 100.401 5.01667 100.401 4.35C100.401 3.68333 100.618 3.1 101.051 2.6C101.485 2.06666 102.068 1.66666 102.801 1.4C103.568 1.1 104.435 0.949999 105.401 0.949999C106.401 0.949999 107.268 1.1 108.001 1.4C108.768 1.66666 109.368 2.06666 109.801 2.6C110.235 3.1 110.451 3.68333 110.451 4.35C110.451 5.01667 110.235 5.61667 109.801 6.15C109.368 6.65 108.768 7.05 108.001 7.35C107.268 7.61666 106.401 7.75 105.401 7.75ZM99.4512 37.25V36.75L102.151 36.25V13.85H99.2012V13.3L109.151 11.5V36.25L111.851 36.75V37.25H99.4512ZM146.467 36.75V37.25H133.917V36.75L136.567 36.25V19.3C136.567 17.5333 136.267 16.2 135.667 15.3C135.067 14.4 134.2 13.95 133.067 13.95C132.3 13.95 131.517 14.25 130.717 14.85C129.95 15.4167 129.2 16.1667 128.467 17.1C127.767 18 127.133 18.9333 126.567 19.9C126 20.8667 125.55 21.75 125.217 22.55V36.25L127.867 36.75V37.25H115.517V36.75L118.217 36.25V13.85H115.317V13.3L125.217 11.5V19.7L125.617 20.05C126.45 18.35 127.383 16.8667 128.417 15.6C129.483 14.3 130.667 13.3 131.967 12.6C133.267 11.8667 134.7 11.5 136.267 11.5C137.633 11.5 138.783 11.7167 139.717 12.15C140.65 12.55 141.383 13.15 141.917 13.95C142.483 14.7167 142.9 15.65 143.167 16.75C143.433 17.8167 143.567 19 143.567 20.3V36.25L146.467 36.75ZM176.352 -3.21865e-06V35.45H179.302V36L169.352 38V30.05L168.952 29.65C168.619 30.5833 168.169 31.55 167.602 32.55C167.069 33.5167 166.419 34.4167 165.652 35.25C164.886 36.05 163.986 36.7167 162.952 37.25C161.952 37.75 160.836 38 159.602 38C157.602 38 155.836 37.45 154.302 36.35C152.802 35.25 151.636 33.75 150.802 31.85C149.969 29.9167 149.552 27.75 149.552 25.35C149.552 22.25 150.052 19.6833 151.052 17.65C152.052 15.5833 153.386 14.05 155.052 13.05C156.752 12.0167 158.602 11.5 160.602 11.5C162.236 11.5 163.636 11.7667 164.802 12.3C166.002 12.8333 166.986 13.4833 167.752 14.25C168.519 14.9833 169.052 15.7333 169.352 16.5V2.55H166.452V2L176.352 -3.21865e-06ZM163.402 13.2C162.036 13.2 160.852 13.7 159.852 14.7C158.852 15.6667 158.086 17 157.552 18.7C157.019 20.4 156.752 22.3333 156.752 24.5C156.752 26.9333 156.969 28.9833 157.402 30.65C157.836 32.2833 158.452 33.5167 159.252 34.35C160.086 35.15 161.069 35.55 162.202 35.55C163.069 35.55 163.852 35.3333 164.552 34.9C165.252 34.4333 165.902 33.8 166.502 33C167.102 32.1667 167.636 31.2167 168.102 30.15C168.569 29.05 168.986 27.85 169.352 26.55V20.85C169.352 19.8167 169.202 18.8333 168.902 17.9C168.602 16.9333 168.186 16.1167 167.652 15.45C167.119 14.75 166.486 14.2 165.752 13.8C165.019 13.4 164.236 13.2 163.402 13.2ZM210.18 37.25V36.75L213.08 36.15V2.6H209.18C208.347 2.6 207.58 2.81667 206.88 3.25C206.18 3.65 205.58 4.31666 205.08 5.25C204.613 6.15 204.213 7.33333 203.88 8.8L202.38 15.5H201.48L199.98 1.85H233.53L231.98 15.5H231.13L229.63 8.95C229.33 7.41666 228.913 6.2 228.38 5.3C227.88 4.36666 227.28 3.68333 226.58 3.25C225.913 2.81667 225.147 2.6 224.28 2.6H220.38V36.15L223.33 36.75V37.25H210.18ZM267.457 36.75V37.25H255.307V36.75L257.757 36.25V19.3C257.757 17.5333 257.457 16.2 256.857 15.3C256.257 14.4 255.39 13.95 254.257 13.95C253.49 13.95 252.707 14.25 251.907 14.85C251.107 15.4167 250.357 16.1667 249.657 17.1C248.957 18 248.324 18.9333 247.757 19.9C247.19 20.8667 246.74 21.75 246.407 22.55V36.25L248.857 36.75V37.25H236.707V36.75L239.407 36.25V2.35H236.457V1.8L246.407 -3.21865e-06V19.7L246.807 20.05C247.64 18.35 248.574 16.8667 249.607 15.6C250.674 14.3 251.84 13.3 253.107 12.6C254.407 11.8667 255.857 11.5 257.457 11.5C258.824 11.5 259.974 11.7167 260.907 12.15C261.84 12.55 262.574 13.15 263.107 13.95C263.674 14.7167 264.09 15.65 264.357 16.75C264.624 17.8167 264.757 19 264.757 20.3V36.25L267.457 36.75ZM284.248 11.5C287.015 11.5 289.298 12.05 291.098 13.15C292.898 14.25 294.248 15.7167 295.148 17.55C296.048 19.3833 296.498 21.45 296.498 23.75H277.548V23.25L289.998 22.6C289.998 20.3667 289.798 18.4667 289.398 16.9C288.998 15.3333 288.365 14.15 287.498 13.35C286.665 12.5167 285.565 12.1 284.198 12.1C282.865 12.1 281.698 12.5333 280.698 13.4C279.732 14.2667 278.982 15.5833 278.448 17.35C277.948 19.0833 277.698 21.3167 277.698 24.05C277.698 25.55 277.882 27 278.248 28.4C278.648 29.7667 279.215 31.0167 279.948 32.15C280.715 33.25 281.648 34.1333 282.748 34.8C283.848 35.4333 285.132 35.75 286.598 35.75C287.498 35.75 288.398 35.6167 289.298 35.35C290.198 35.0833 291.048 34.7 291.848 34.2C292.648 33.7 293.382 33.1 294.048 32.4C294.715 31.6667 295.265 30.8167 295.698 29.85L296.248 30.35C295.482 31.9167 294.598 33.2 293.598 34.2C292.632 35.2 291.582 35.9833 290.448 36.55C289.315 37.0833 288.165 37.45 286.998 37.65C285.832 37.8833 284.682 38 283.548 38C281.482 38 279.648 37.65 278.048 36.95C276.448 36.25 275.082 35.3 273.948 34.1C272.848 32.8667 271.998 31.4833 271.398 29.95C270.832 28.3833 270.548 26.7667 270.548 25.1C270.548 23 270.882 21.1167 271.548 19.45C272.248 17.7833 273.198 16.3667 274.398 15.2C275.632 14 277.082 13.0833 278.748 12.45C280.415 11.8167 282.248 11.5 284.248 11.5ZM350.346 30.7C349.246 32.4 347.946 33.7833 346.446 34.85C344.946 35.9167 343.33 36.7167 341.596 37.25C339.863 37.75 338.08 38 336.246 38C333.78 38 331.496 37.6 329.396 36.8C327.33 35.9667 325.53 34.7667 323.996 33.2C322.463 31.6 321.263 29.6667 320.396 27.4C319.563 25.1333 319.146 22.5667 319.146 19.7C319.146 16.8667 319.563 14.3167 320.396 12.05C321.263 9.75 322.463 7.78333 323.996 6.15C325.563 4.51667 327.446 3.26667 329.646 2.4C331.846 1.53333 334.313 1.1 337.046 1.1C338.913 1.1 340.696 1.28333 342.396 1.65C344.096 2.01667 345.63 2.51666 346.996 3.15C348.363 3.75 349.513 4.43333 350.446 5.2L347.746 18.6H346.796L345.496 11.35C345.096 9.18333 344.48 7.4 343.646 6C342.813 4.56667 341.73 3.5 340.396 2.8C339.063 2.1 337.463 1.75 335.596 1.75C334.196 1.75 332.93 2.16666 331.796 3C330.663 3.8 329.696 4.93333 328.896 6.4C328.096 7.83333 327.48 9.5 327.046 11.4C326.613 13.3 326.396 15.35 326.396 17.55C326.396 19.8833 326.68 22.0833 327.246 24.15C327.813 26.2167 328.663 28.0333 329.796 29.6C330.963 31.1667 332.43 32.4 334.196 33.3C335.963 34.1667 338.063 34.6 340.496 34.6C342.33 34.6 344.046 34.2333 345.646 33.5C347.28 32.7667 348.68 31.7167 349.846 30.35L350.346 30.7ZM368.923 11.5C370.923 11.5 372.64 11.7167 374.073 12.15C375.54 12.5833 376.74 13.25 377.673 14.15C378.607 15.05 379.29 16.1833 379.723 17.55C380.157 18.9167 380.373 20.5167 380.373 22.35V35.55C380.373 35.95 380.457 36.2667 380.623 36.5C380.823 36.7333 381.09 36.85 381.423 36.85C381.757 36.85 382.157 36.75 382.623 36.55C383.123 36.35 383.623 36.0833 384.123 35.75V36.25C383.69 36.5833 383.173 36.8833 382.573 37.15C382.007 37.4167 381.39 37.6167 380.723 37.75C380.09 37.9167 379.457 38 378.823 38C377.157 38 375.823 37.5667 374.823 36.7C373.857 35.8 373.373 34.35 373.373 32.35C373.373 31.8167 373.373 31.4333 373.373 31.2C373.373 30.9333 373.373 30.7333 373.373 30.6C373.373 30.4333 373.373 30.25 373.373 30.05L372.973 29.75C372.34 31.05 371.59 32.2167 370.723 33.25C369.89 34.25 368.957 35.1167 367.923 35.85C366.89 36.55 365.823 37.0833 364.723 37.45C363.623 37.8167 362.523 38 361.423 38C360.19 38 359.073 37.7833 358.073 37.35C357.073 36.9167 356.273 36.2833 355.673 35.45C355.073 34.6167 354.773 33.6 354.773 32.4C354.773 29.6 356.357 27.45 359.523 25.95C362.723 24.4167 367.34 23.65 373.373 23.65C373.373 20.8167 373.173 18.5833 372.773 16.95C372.373 15.3167 371.673 14.15 370.673 13.45C369.707 12.75 368.307 12.4 366.473 12.4C365.373 12.4 364.39 12.5167 363.523 12.75C362.657 12.95 361.973 13.1833 361.473 13.45C360.973 13.7167 360.723 13.9667 360.723 14.2C360.723 14.3667 360.907 14.55 361.273 14.75C361.64 14.95 362.273 15.2167 363.173 15.55C364.94 16.1833 365.823 17.1333 365.823 18.4C365.823 19.4667 365.34 20.3 364.373 20.9C363.407 21.4667 362.223 21.75 360.823 21.75C359.457 21.75 358.29 21.4667 357.323 20.9C356.39 20.3 355.923 19.4333 355.923 18.3C355.923 17.4667 356.273 16.65 356.973 15.85C357.673 15.05 358.623 14.3167 359.823 13.65C361.057 12.9833 362.457 12.4667 364.023 12.1C365.59 11.7 367.223 11.5 368.923 11.5ZM373.373 24.25C370.573 24.25 368.273 24.6167 366.473 25.35C364.673 26.0833 363.34 27.0333 362.473 28.2C361.607 29.3333 361.173 30.5667 361.173 31.9C361.173 32.7 361.323 33.3667 361.623 33.9C361.923 34.4 362.323 34.7833 362.823 35.05C363.323 35.2833 363.907 35.4 364.573 35.4C365.307 35.4 366.073 35.25 366.873 34.95C367.707 34.65 368.523 34.1833 369.323 33.55C370.123 32.9167 370.873 32.1167 371.573 31.15C372.307 30.1833 372.907 29.0167 373.373 27.65V24.25ZM417.707 36.75V37.25H405.157V36.75L407.807 36.25V19.3C407.807 17.5333 407.507 16.2 406.907 15.3C406.307 14.4 405.44 13.95 404.307 13.95C403.54 13.95 402.757 14.25 401.957 14.85C401.19 15.4167 400.44 16.1667 399.707 17.1C399.007 18 398.374 18.9333 397.807 19.9C397.24 20.8667 396.79 21.75 396.457 22.55V36.25L399.107 36.75V37.25H386.757V36.75L389.457 36.25V13.85H386.557V13.3L396.457 11.5V19.7L396.857 20.05C397.69 18.35 398.624 16.8667 399.657 15.6C400.724 14.3 401.907 13.3 403.207 12.6C404.507 11.8667 405.94 11.5 407.507 11.5C408.874 11.5 410.024 11.7167 410.957 12.15C411.89 12.55 412.624 13.15 413.157 13.95C413.724 14.7167 414.14 15.65 414.407 16.75C414.674 17.8167 414.807 19 414.807 20.3V36.25L417.707 36.75ZM431.493 37.25L421.593 13.25L418.793 12.8V12.25H432.243V12.8L429.193 13.25L436.643 31.55H437.293L440.493 22.5C440.693 21.9667 440.843 21.35 440.943 20.65C441.043 19.9167 441.093 19.15 441.093 18.35C441.093 17.7167 441.009 17.0833 440.843 16.45C440.709 15.7833 440.459 15.1833 440.093 14.65C439.759 14.0833 439.293 13.6333 438.693 13.3C438.093 12.9333 437.343 12.75 436.443 12.75V12.25H447.793V12.75L444.693 13.25L435.793 37.25H431.493ZM462.869 11.5C464.869 11.5 466.585 11.7167 468.019 12.15C469.485 12.5833 470.685 13.25 471.619 14.15C472.552 15.05 473.235 16.1833 473.669 17.55C474.102 18.9167 474.319 20.5167 474.319 22.35V35.55C474.319 35.95 474.402 36.2667 474.569 36.5C474.769 36.7333 475.035 36.85 475.369 36.85C475.702 36.85 476.102 36.75 476.569 36.55C477.069 36.35 477.569 36.0833 478.069 35.75V36.25C477.635 36.5833 477.119 36.8833 476.519 37.15C475.952 37.4167 475.335 37.6167 474.669 37.75C474.035 37.9167 473.402 38 472.769 38C471.102 38 469.769 37.5667 468.769 36.7C467.802 35.8 467.319 34.35 467.319 32.35C467.319 31.8167 467.319 31.4333 467.319 31.2C467.319 30.9333 467.319 30.7333 467.319 30.6C467.319 30.4333 467.319 30.25 467.319 30.05L466.919 29.75C466.285 31.05 465.535 32.2167 464.669 33.25C463.835 34.25 462.902 35.1167 461.869 35.85C460.835 36.55 459.769 37.0833 458.669 37.45C457.569 37.8167 456.469 38 455.369 38C454.135 38 453.019 37.7833 452.019 37.35C451.019 36.9167 450.219 36.2833 449.619 35.45C449.019 34.6167 448.719 33.6 448.719 32.4C448.719 29.6 450.302 27.45 453.469 25.95C456.669 24.4167 461.285 23.65 467.319 23.65C467.319 20.8167 467.119 18.5833 466.719 16.95C466.319 15.3167 465.619 14.15 464.619 13.45C463.652 12.75 462.252 12.4 460.419 12.4C459.319 12.4 458.335 12.5167 457.469 12.75C456.602 12.95 455.919 13.1833 455.419 13.45C454.919 13.7167 454.669 13.9667 454.669 14.2C454.669 14.3667 454.852 14.55 455.219 14.75C455.585 14.95 456.219 15.2167 457.119 15.55C458.885 16.1833 459.769 17.1333 459.769 18.4C459.769 19.4667 459.285 20.3 458.319 20.9C457.352 21.4667 456.169 21.75 454.769 21.75C453.402 21.75 452.235 21.4667 451.269 20.9C450.335 20.3 449.869 19.4333 449.869 18.3C449.869 17.4667 450.219 16.65 450.919 15.85C451.619 15.05 452.569 14.3167 453.769 13.65C455.002 12.9833 456.402 12.4667 457.969 12.1C459.535 11.7 461.169 11.5 462.869 11.5ZM467.319 24.25C464.519 24.25 462.219 24.6167 460.419 25.35C458.619 26.0833 457.285 27.0333 456.419 28.2C455.552 29.3333 455.119 30.5667 455.119 31.9C455.119 32.7 455.269 33.3667 455.569 33.9C455.869 34.4 456.269 34.7833 456.769 35.05C457.269 35.2833 457.852 35.4 458.519 35.4C459.252 35.4 460.019 35.25 460.819 34.95C461.652 34.65 462.469 34.1833 463.269 33.55C464.069 32.9167 464.819 32.1167 465.519 31.15C466.252 30.1833 466.852 29.0167 467.319 27.65V24.25ZM492.052 38C490.519 38 489.069 37.85 487.702 37.55C486.336 37.2833 485.119 36.9 484.052 36.4C483.019 35.8667 482.202 35.2333 481.602 34.5C481.002 33.7333 480.702 32.8667 480.702 31.9C480.702 31.1667 480.919 30.5667 481.352 30.1C481.786 29.6333 482.336 29.2833 483.002 29.05C483.702 28.7833 484.402 28.65 485.102 28.65C485.869 28.65 486.569 28.7667 487.202 29C487.869 29.2333 488.402 29.5667 488.802 30C489.202 30.4333 489.402 30.9833 489.402 31.65C489.402 32.1167 489.302 32.55 489.102 32.95C488.902 33.3167 488.586 33.6833 488.152 34.05C487.619 34.45 487.252 34.7833 487.052 35.05C486.886 35.2833 486.802 35.55 486.802 35.85C486.802 36.0833 487.002 36.3333 487.402 36.6C487.802 36.8333 488.369 37.0333 489.102 37.2C489.836 37.3667 490.702 37.45 491.702 37.45C493.069 37.45 494.286 37.2833 495.352 36.95C496.419 36.6167 497.252 36.1167 497.852 35.45C498.486 34.75 498.802 33.8667 498.802 32.8C498.802 31.9333 498.536 31.15 498.002 30.45C497.502 29.75 496.652 29.0833 495.452 28.45C494.252 27.8167 492.602 27.15 490.502 26.45C488.136 25.6167 486.252 24.7833 484.852 23.95C483.486 23.1167 482.502 22.25 481.902 21.35C481.336 20.4167 481.052 19.4167 481.052 18.35C481.052 16.25 482.086 14.5833 484.152 13.35C486.252 12.1167 489.102 11.5 492.702 11.5C494.636 11.5 496.419 11.75 498.052 12.25C499.686 12.75 501.002 13.45 502.002 14.35C503.002 15.2167 503.502 16.2667 503.502 17.5C503.502 18.1667 503.302 18.7333 502.902 19.2C502.502 19.6333 501.969 19.9667 501.302 20.2C500.669 20.4333 500.002 20.55 499.302 20.55C498.769 20.55 498.236 20.4833 497.702 20.35C497.169 20.2167 496.686 20.0333 496.252 19.8C495.819 19.5333 495.469 19.2167 495.202 18.85C494.936 18.45 494.802 18.0167 494.802 17.55C494.802 16.5833 495.302 15.75 496.302 15.05C496.836 14.65 497.202 14.3333 497.402 14.1C497.602 13.8667 497.702 13.6333 497.702 13.4C497.702 13.2333 497.586 13.0667 497.352 12.9C497.152 12.7333 496.836 12.6 496.402 12.5C496.002 12.3667 495.519 12.2667 494.952 12.2C494.386 12.1 493.769 12.05 493.102 12.05C491.736 12.05 490.502 12.2 489.402 12.5C488.302 12.8 487.419 13.25 486.752 13.85C486.119 14.4167 485.802 15.15 485.802 16.05C485.802 16.9167 486.136 17.7167 486.802 18.45C487.469 19.15 488.402 19.8167 489.602 20.45C490.836 21.0833 492.302 21.7 494.002 22.3C496.502 23.2333 498.469 24.1 499.902 24.9C501.369 25.6667 502.419 26.4667 503.052 27.3C503.686 28.1333 504.002 29.0667 504.002 30.1C504.002 31.4333 503.669 32.5833 503.002 33.55C502.369 34.5167 501.502 35.3333 500.402 36C499.302 36.6667 498.036 37.1667 496.602 37.5C495.169 37.8333 493.652 38 492.052 38Z" fill="#C2C2C2" fill-opacity="0.73"/>
</g>
<defs>
<filter id="filter0_in_2063_1154" x="0" y="0" width="504.002" height="42.3" filterUnits="userSpaceOnUse" color-interpolation-filters="sRGB">
<feFlood flood-opacity="0" result="BackgroundImageFix"/>
<feBlend mode="normal" in="SourceGraphic" in2="BackgroundImageFix" result="shape"/>
<feColorMatrix in="SourceAlpha" type="matrix" values="0 0 0 0 0 0 0 0 0 0 0 0 0 0 0 0 0 0 127 0" result="hardAlpha"/>
<feOffset dy="13"/>
<feGaussianBlur stdDeviation="2.15"/>
<feComposite in2="hardAlpha" operator="arithmetic" k2="-1" k3="1"/>
<feColorMatrix type="matrix" values="0 0 0 0 0 0 0 0 0 0 0 0 0 0 0 0 0 0 0.44 0"/>
<feBlend mode="normal" in2="shape" result="effect1_innerShadow_2063_1154"/>
<feTurbulence type="fractalNoise" baseFrequency="2 2" stitchTiles="stitch" numOctaves="3" result="noise" seed="8743" />
<feColorMatrix in="noise" type="luminanceToAlpha" result="alphaNoise" />
<feComponentTransfer in="alphaNoise" result="coloredNoise1">
<feFuncA type="discrete" tableValues="0 0 0 0 1 1 1 1 1 1 1 1 1 1 1 1 1 1 1 1 1 1 1 1 1 1 1 1 1 1 1 1 1 1 1 1 1 1 1 1 1 1 1 1 1 1 0 0 0 0 0 0 0 0 0 0 0 0 0 0 0 0 0 0 0 0 0 0 0 0 0 0 0 0 0 0 0 0 0 0 0 0 0 0 0 0 0 0 0 0 0 0 0 0 0 0 0 0 0 0 "/>
</feComponentTransfer>
<feComposite operator="in" in2="effect1_innerShadow_2063_1154" in="coloredNoise1" result="noise1Clipped" />
<feFlood flood-color="#000000" result="color1Flood" />
<feComposite operator="in" in2="noise1Clipped" in="color1Flood" result="color1" />
<feMerge result="effect2_noise_2063_1154">
<feMergeNode in="effect1_innerShadow_2063_1154" />
<feMergeNode in="color1" />
</feMerge>
</filter>
</defs>
</svg>
