<svg width="717" height="48" viewBox="0 0 717 48" fill="none" xmlns="http://www.w3.org/2000/svg">
<g filter="url(#filter0_in_2017_52347)">
<path d="M10.2 37.25V36.75L13.1 36.15V2.6H9.19999C8.36665 2.6 7.59999 2.81667 6.89999 3.25C6.19999 3.65 5.59999 4.31666 5.09999 5.25C4.63332 6.15 4.23332 7.33333 3.89999 8.8L2.39999 15.5H1.49999L-1.21556e-05 1.85H33.55L32 15.5H31.15L29.65 8.95C29.35 7.41666 28.9333 6.2 28.4 5.3C27.9 4.36666 27.3 3.68333 26.6 3.25C25.9333 2.81667 25.1667 2.6 24.3 2.6H20.4V36.15L23.35 36.75V37.25H10.2ZM67.4769 36.75V37.25H55.3269V36.75L57.7769 36.25V19.3C57.7769 17.5333 57.4769 16.2 56.8769 15.3C56.2769 14.4 55.4103 13.95 54.2769 13.95C53.5103 13.95 52.7269 14.25 51.9269 14.85C51.1269 15.4167 50.3769 16.1667 49.6769 17.1C48.9769 18 48.3436 18.9333 47.7769 19.9C47.2103 20.8667 46.7603 21.75 46.4269 22.55V36.25L48.8769 36.75V37.25H36.7269V36.75L39.4269 36.25V2.35H36.4769V1.8L46.4269 -3.21865e-06V19.7L46.8269 20.05C47.6603 18.35 48.5936 16.8667 49.6269 15.6C50.6936 14.3 51.8603 13.3 53.1269 12.6C54.4269 11.8667 55.8769 11.5 57.4769 11.5C58.8436 11.5 59.9936 11.7167 60.9269 12.15C61.8603 12.55 62.5936 13.15 63.1269 13.95C63.6936 14.7167 64.1103 15.65 64.3769 16.75C64.6436 17.8167 64.7769 19 64.7769 20.3V36.25L67.4769 36.75ZM84.2683 11.5C87.035 11.5 89.3183 12.05 91.1183 13.15C92.9183 14.25 94.2683 15.7167 95.1683 17.55C96.0683 19.3833 96.5183 21.45 96.5183 23.75H77.5683V23.25L90.0183 22.6C90.0183 20.3667 89.8183 18.4667 89.4183 16.9C89.0183 15.3333 88.385 14.15 87.5183 13.35C86.685 12.5167 85.585 12.1 84.2183 12.1C82.885 12.1 81.7183 12.5333 80.7183 13.4C79.7517 14.2667 79.0017 15.5833 78.4683 17.35C77.9683 19.0833 77.7183 21.3167 77.7183 24.05C77.7183 25.55 77.9017 27 78.2683 28.4C78.6683 29.7667 79.235 31.0167 79.9683 32.15C80.735 33.25 81.6683 34.1333 82.7683 34.8C83.8683 35.4333 85.1517 35.75 86.6183 35.75C87.5183 35.75 88.4183 35.6167 89.3183 35.35C90.2183 35.0833 91.0683 34.7 91.8683 34.2C92.6683 33.7 93.4017 33.1 94.0683 32.4C94.735 31.6667 95.285 30.8167 95.7183 29.85L96.2683 30.35C95.5017 31.9167 94.6183 33.2 93.6183 34.2C92.6517 35.2 91.6017 35.9833 90.4683 36.55C89.335 37.0833 88.185 37.45 87.0183 37.65C85.8517 37.8833 84.7017 38 83.5683 38C81.5017 38 79.6683 37.65 78.0683 36.95C76.4683 36.25 75.1017 35.3 73.9683 34.1C72.8683 32.8667 72.0183 31.4833 71.4183 29.95C70.8517 28.3833 70.5683 26.7667 70.5683 25.1C70.5683 23 70.9017 21.1167 71.5683 19.45C72.2683 17.7833 73.2183 16.3667 74.4183 15.2C75.6517 14 77.1017 13.0833 78.7683 12.45C80.435 11.8167 82.2683 11.5 84.2683 11.5ZM117.166 37.25V36.75L120.166 36.15L133.766 1.85H138.466L151.766 36.15L154.666 36.75V37.25H140.366V36.9L143.916 36.2L132.816 7.5H132.266L127.516 20.2C126.783 22 126.216 23.7333 125.816 25.4C125.45 27.0667 125.266 28.5167 125.266 29.75C125.266 31.0833 125.5 32.2833 125.966 33.35C126.433 34.4167 127.166 35.25 128.166 35.85C129.166 36.45 130.466 36.75 132.066 36.75V37.25H117.166ZM125.716 22.9V22.4L139.066 21.7V22.9H125.716ZM188.039 36.75V37.25H175.489V36.75L178.139 36.25V19.3C178.139 17.5333 177.839 16.2 177.239 15.3C176.639 14.4 175.773 13.95 174.639 13.95C173.873 13.95 173.089 14.25 172.289 14.85C171.523 15.4167 170.773 16.1667 170.039 17.1C169.339 18 168.706 18.9333 168.139 19.9C167.573 20.8667 167.123 21.75 166.789 22.55V36.25L169.439 36.75V37.25H157.089V36.75L159.789 36.25V13.85H156.889V13.3L166.789 11.5V19.7L167.189 20.05C168.023 18.35 168.956 16.8667 169.989 15.6C171.056 14.3 172.239 13.3 173.539 12.6C174.839 11.8667 176.273 11.5 177.839 11.5C179.206 11.5 180.356 11.7167 181.289 12.15C182.223 12.55 182.956 13.15 183.489 13.95C184.056 14.7167 184.473 15.65 184.739 16.75C185.006 17.8167 185.139 19 185.139 20.3V36.25L188.039 36.75ZM205.125 11.5C207.125 11.5 208.842 11.7167 210.275 12.15C211.742 12.5833 212.942 13.25 213.875 14.15C214.808 15.05 215.492 16.1833 215.925 17.55C216.358 18.9167 216.575 20.5167 216.575 22.35V35.55C216.575 35.95 216.658 36.2667 216.825 36.5C217.025 36.7333 217.292 36.85 217.625 36.85C217.958 36.85 218.358 36.75 218.825 36.55C219.325 36.35 219.825 36.0833 220.325 35.75V36.25C219.892 36.5833 219.375 36.8833 218.775 37.15C218.208 37.4167 217.592 37.6167 216.925 37.75C216.292 37.9167 215.658 38 215.025 38C213.358 38 212.025 37.5667 211.025 36.7C210.058 35.8 209.575 34.35 209.575 32.35C209.575 31.8167 209.575 31.4333 209.575 31.2C209.575 30.9333 209.575 30.7333 209.575 30.6C209.575 30.4333 209.575 30.25 209.575 30.05L209.175 29.75C208.542 31.05 207.792 32.2167 206.925 33.25C206.092 34.25 205.158 35.1167 204.125 35.85C203.092 36.55 202.025 37.0833 200.925 37.45C199.825 37.8167 198.725 38 197.625 38C196.392 38 195.275 37.7833 194.275 37.35C193.275 36.9167 192.475 36.2833 191.875 35.45C191.275 34.6167 190.975 33.6 190.975 32.4C190.975 29.6 192.558 27.45 195.725 25.95C198.925 24.4167 203.542 23.65 209.575 23.65C209.575 20.8167 209.375 18.5833 208.975 16.95C208.575 15.3167 207.875 14.15 206.875 13.45C205.908 12.75 204.508 12.4 202.675 12.4C201.575 12.4 200.592 12.5167 199.725 12.75C198.858 12.95 198.175 13.1833 197.675 13.45C197.175 13.7167 196.925 13.9667 196.925 14.2C196.925 14.3667 197.108 14.55 197.475 14.75C197.842 14.95 198.475 15.2167 199.375 15.55C201.142 16.1833 202.025 17.1333 202.025 18.4C202.025 19.4667 201.542 20.3 200.575 20.9C199.608 21.4667 198.425 21.75 197.025 21.75C195.658 21.75 194.492 21.4667 193.525 20.9C192.592 20.3 192.125 19.4333 192.125 18.3C192.125 17.4667 192.475 16.65 193.175 15.85C193.875 15.05 194.825 14.3167 196.025 13.65C197.258 12.9833 198.658 12.4667 200.225 12.1C201.792 11.7 203.425 11.5 205.125 11.5ZM209.575 24.25C206.775 24.25 204.475 24.6167 202.675 25.35C200.875 26.0833 199.542 27.0333 198.675 28.2C197.808 29.3333 197.375 30.5667 197.375 31.9C197.375 32.7 197.525 33.3667 197.825 33.9C198.125 34.4 198.525 34.7833 199.025 35.05C199.525 35.2833 200.108 35.4 200.775 35.4C201.508 35.4 202.275 35.25 203.075 34.95C203.908 34.65 204.725 34.1833 205.525 33.55C206.325 32.9167 207.075 32.1167 207.775 31.15C208.508 30.1833 209.108 29.0167 209.575 27.65V24.25ZM230.909 38C228.809 38 227.309 37.4 226.409 36.2C225.509 35 225.059 33.2 225.059 30.8V13.25H221.659V12.75L225.109 12.25L231.309 4.05H232.059V11.8L237.209 12.75V13.25H232.059V33.1C232.059 34.2667 232.225 35.1167 232.559 35.65C232.925 36.15 233.409 36.4 234.009 36.4C234.542 36.4 235.059 36.2333 235.559 35.9C236.059 35.5333 236.559 35.0833 237.059 34.55L237.209 35.25C236.842 35.5833 236.409 35.9167 235.909 36.25C235.442 36.5833 234.942 36.8833 234.409 37.15C233.875 37.4167 233.309 37.6167 232.709 37.75C232.142 37.9167 231.542 38 230.909 38ZM252.962 11.5C255.129 11.5 257.046 11.8167 258.712 12.45C260.379 13.0833 261.779 14 262.912 15.2C264.046 16.4 264.896 17.8333 265.462 19.5C266.062 21.1333 266.362 22.95 266.362 24.95C266.362 26.7833 266.062 28.5 265.462 30.1C264.896 31.6667 264.046 33.05 262.912 34.25C261.779 35.4167 260.379 36.3333 258.712 37C257.079 37.6667 255.162 38 252.962 38C250.762 38 248.812 37.6667 247.112 37C245.446 36.3333 244.046 35.4167 242.912 34.25C241.812 33.05 240.979 31.6667 240.412 30.1C239.846 28.5 239.562 26.7833 239.562 24.95C239.562 22.95 239.862 21.1333 240.462 19.5C241.096 17.8333 241.979 16.4 243.112 15.2C244.279 14 245.696 13.0833 247.362 12.45C249.029 11.8167 250.896 11.5 252.962 11.5ZM253.012 12.1C251.579 12.1 250.396 12.6667 249.462 13.8C248.529 14.9333 247.829 16.4667 247.362 18.4C246.929 20.3333 246.712 22.5167 246.712 24.95C246.712 26.65 246.829 28.2667 247.062 29.8C247.296 31.3 247.662 32.6167 248.162 33.75C248.696 34.8833 249.362 35.7833 250.162 36.45C250.962 37.0833 251.896 37.4 252.962 37.4C254.029 37.4 254.946 37.0833 255.712 36.45C256.512 35.8167 257.179 34.9333 257.712 33.8C258.246 32.6333 258.629 31.3 258.862 29.8C259.096 28.3 259.212 26.6833 259.212 24.95C259.212 23.15 259.096 21.4667 258.862 19.9C258.629 18.3333 258.262 16.9667 257.762 15.8C257.262 14.6333 256.612 13.7333 255.812 13.1C255.046 12.4333 254.112 12.1 253.012 12.1ZM270.224 37.25V36.75L272.924 36.1V14.25H270.024V13.7L279.924 11.95V19.7L280.324 20.05C281.058 18.4167 281.924 16.9667 282.924 15.7C283.924 14.4 285.058 13.3833 286.324 12.65C287.591 11.8833 288.991 11.5 290.524 11.5C291.758 11.5 292.824 11.6833 293.724 12.05C294.658 12.4167 295.424 12.9667 296.024 13.7C296.624 14.4 297.074 15.2833 297.374 16.35C297.674 17.3833 297.824 18.5833 297.824 19.95V36.1L300.474 36.75V37.25H288.174V36.75L290.824 36.1V19.3C290.824 17.5333 290.524 16.2 289.924 15.3C289.324 14.4 288.474 13.95 287.374 13.95C286.608 13.95 285.858 14.25 285.124 14.85C284.424 15.4167 283.741 16.15 283.074 17.05C282.408 17.95 281.808 18.8833 281.274 19.85C280.741 20.8167 280.291 21.7167 279.924 22.55V36.1L282.574 36.75V37.25H270.224ZM306.074 37.25V36.75L308.724 36.1V19.3C308.724 17.5333 308.424 16.2 307.824 15.3C307.224 14.4 306.358 13.95 305.224 13.95C304.491 13.95 303.758 14.25 303.024 14.85C302.291 15.4167 301.591 16.15 300.924 17.05C300.258 17.95 299.658 18.8833 299.124 19.85C298.591 20.8167 298.158 21.7167 297.824 22.55V19.7L298.224 20.05C298.924 18.4167 299.774 16.9667 300.774 15.7C301.774 14.4 302.908 13.3833 304.174 12.65C305.474 11.8833 306.891 11.5 308.424 11.5C309.791 11.5 310.941 11.7167 311.874 12.15C312.808 12.55 313.541 13.15 314.074 13.95C314.641 14.7167 315.058 15.65 315.324 16.75C315.591 17.8167 315.724 19 315.724 20.3V36.1L318.624 36.75V37.25H306.074ZM327.69 48C326.424 48 325.34 47.7833 324.44 47.35C323.574 46.95 322.907 46.3833 322.44 45.65C322.007 44.95 321.79 44.1667 321.79 43.3C321.79 42.7333 321.907 42.2333 322.14 41.8C322.407 41.4 322.74 41.05 323.14 40.75C323.574 40.4833 324.04 40.2833 324.54 40.15C325.074 40.0167 325.607 39.95 326.14 39.95C326.774 39.95 327.374 40.05 327.94 40.25C328.507 40.4833 328.974 40.8 329.34 41.2C329.707 41.6333 329.89 42.1833 329.89 42.85C329.89 43.3167 329.824 43.75 329.69 44.15C329.59 44.55 329.44 44.9167 329.24 45.25C329.04 45.5833 328.874 45.85 328.74 46.05C328.64 46.2833 328.59 46.4667 328.59 46.6C328.59 46.8333 328.89 46.95 329.49 46.95C330.09 46.95 330.707 46.7 331.34 46.2C331.974 45.7 332.574 44.9667 333.14 44C333.574 43.3333 334.04 42.4 334.54 41.2C335.04 40.0333 335.524 38.7167 335.99 37.25H332.49L322.69 13.25L319.74 12.8V12.25H333.19V12.8L330.29 13.25L337.59 31.55H338.24L341.49 22.4C341.657 21.8667 341.774 21.3 341.84 20.7C341.94 20.1 341.99 19.5 341.99 18.9C341.99 18.2333 341.924 17.55 341.79 16.85C341.69 16.1167 341.457 15.45 341.09 14.85C340.757 14.2167 340.29 13.7167 339.69 13.35C339.09 12.95 338.324 12.75 337.39 12.75V12.25H348.74V12.75L345.64 13.25L336.74 37.25C336.04 39.15 335.424 40.7167 334.89 41.95C334.357 43.1833 333.907 44.0667 333.54 44.6C332.907 45.6333 332.124 46.45 331.19 47.05C330.257 47.6833 329.09 48 327.69 48ZM382.894 11.5C385.061 11.5 386.977 11.8167 388.644 12.45C390.311 13.0833 391.711 14 392.844 15.2C393.977 16.4 394.827 17.8333 395.394 19.5C395.994 21.1333 396.294 22.95 396.294 24.95C396.294 26.7833 395.994 28.5 395.394 30.1C394.827 31.6667 393.977 33.05 392.844 34.25C391.711 35.4167 390.311 36.3333 388.644 37C387.011 37.6667 385.094 38 382.894 38C380.694 38 378.744 37.6667 377.044 37C375.377 36.3333 373.977 35.4167 372.844 34.25C371.744 33.05 370.911 31.6667 370.344 30.1C369.777 28.5 369.494 26.7833 369.494 24.95C369.494 22.95 369.794 21.1333 370.394 19.5C371.027 17.8333 371.911 16.4 373.044 15.2C374.211 14 375.627 13.0833 377.294 12.45C378.961 11.8167 380.827 11.5 382.894 11.5ZM382.944 12.1C381.511 12.1 380.327 12.6667 379.394 13.8C378.461 14.9333 377.761 16.4667 377.294 18.4C376.861 20.3333 376.644 22.5167 376.644 24.95C376.644 26.65 376.761 28.2667 376.994 29.8C377.227 31.3 377.594 32.6167 378.094 33.75C378.627 34.8833 379.294 35.7833 380.094 36.45C380.894 37.0833 381.827 37.4 382.894 37.4C383.961 37.4 384.877 37.0833 385.644 36.45C386.444 35.8167 387.111 34.9333 387.644 33.8C388.177 32.6333 388.561 31.3 388.794 29.8C389.027 28.3 389.144 26.6833 389.144 24.95C389.144 23.15 389.027 21.4667 388.794 19.9C388.561 18.3333 388.194 16.9667 387.694 15.8C387.194 14.6333 386.544 13.7333 385.744 13.1C384.977 12.4333 384.044 12.1 382.944 12.1ZM399.856 37.25V36.75L402.806 36.25V13.25H399.856V12.75L402.806 12.25C402.739 11.05 402.723 9.83333 402.756 8.6C402.823 7.36667 402.956 6.3 403.156 5.4C403.489 4.16667 404.039 3.16667 404.806 2.4C405.573 1.6 406.589 0.999999 407.856 0.599998C409.156 0.199997 410.689 -3.21865e-06 412.456 -3.21865e-06C413.723 -3.21865e-06 414.889 0.116664 415.956 0.349998C417.023 0.583333 417.956 0.916666 418.756 1.35C419.589 1.78333 420.223 2.33333 420.656 3C421.123 3.63333 421.356 4.36667 421.356 5.2C421.356 5.93333 421.139 6.56667 420.706 7.1C420.273 7.6 419.689 7.98333 418.956 8.25C418.223 8.48333 417.389 8.6 416.456 8.6C415.056 8.6 413.873 8.31667 412.906 7.75C411.939 7.18333 411.456 6.35 411.456 5.25C411.456 4.65 411.606 4.13333 411.906 3.7C412.206 3.26667 412.556 2.9 412.956 2.6C413.356 2.3 413.689 2.01667 413.956 1.75C414.256 1.48333 414.406 1.21666 414.406 0.949999C414.406 0.783333 414.273 0.666666 414.006 0.599998C413.739 0.533332 413.256 0.499999 412.556 0.499999C411.223 0.499999 410.273 0.833332 409.706 1.5C409.139 2.16666 408.856 3.15 408.856 4.45C408.856 5.01666 408.889 5.73333 408.956 6.6C409.056 7.46667 409.173 8.38333 409.306 9.35C409.473 10.3167 409.639 11.2833 409.806 12.25L415.256 12.45V13.1H409.806V36.25L412.956 36.75V37.25H399.856ZM447.016 37.25V36.75L449.916 36.15V2.6H446.016C445.183 2.6 444.416 2.81667 443.716 3.25C443.016 3.65 442.416 4.31666 441.916 5.25C441.45 6.15 441.05 7.33333 440.716 8.8L439.216 15.5H438.316L436.816 1.85H470.366L468.816 15.5H467.966L466.466 8.95C466.166 7.41666 465.75 6.2 465.216 5.3C464.716 4.36666 464.116 3.68333 463.416 3.25C462.75 2.81667 461.983 2.6 461.116 2.6H457.216V36.15L460.166 36.75V37.25H447.016ZM504.293 36.75V37.25H492.143V36.75L494.593 36.25V19.3C494.593 17.5333 494.293 16.2 493.693 15.3C493.093 14.4 492.227 13.95 491.093 13.95C490.327 13.95 489.543 14.25 488.743 14.85C487.943 15.4167 487.193 16.1667 486.493 17.1C485.793 18 485.16 18.9333 484.593 19.9C484.027 20.8667 483.577 21.75 483.243 22.55V36.25L485.693 36.75V37.25H473.543V36.75L476.243 36.25V2.35H473.293V1.8L483.243 -3.21865e-06V19.7L483.643 20.05C484.477 18.35 485.41 16.8667 486.443 15.6C487.51 14.3 488.677 13.3 489.943 12.6C491.243 11.8667 492.693 11.5 494.293 11.5C495.66 11.5 496.81 11.7167 497.743 12.15C498.677 12.55 499.41 13.15 499.943 13.95C500.51 14.7167 500.927 15.65 501.193 16.75C501.46 17.8167 501.593 19 501.593 20.3V36.25L504.293 36.75ZM521.085 11.5C523.851 11.5 526.135 12.05 527.935 13.15C529.735 14.25 531.085 15.7167 531.985 17.55C532.885 19.3833 533.335 21.45 533.335 23.75H514.385V23.25L526.835 22.6C526.835 20.3667 526.635 18.4667 526.235 16.9C525.835 15.3333 525.201 14.15 524.335 13.35C523.501 12.5167 522.401 12.1 521.035 12.1C519.701 12.1 518.535 12.5333 517.535 13.4C516.568 14.2667 515.818 15.5833 515.285 17.35C514.785 19.0833 514.535 21.3167 514.535 24.05C514.535 25.55 514.718 27 515.085 28.4C515.485 29.7667 516.051 31.0167 516.785 32.15C517.551 33.25 518.485 34.1333 519.585 34.8C520.685 35.4333 521.968 35.75 523.435 35.75C524.335 35.75 525.235 35.6167 526.135 35.35C527.035 35.0833 527.885 34.7 528.685 34.2C529.485 33.7 530.218 33.1 530.885 32.4C531.551 31.6667 532.101 30.8167 532.535 29.85L533.085 30.35C532.318 31.9167 531.435 33.2 530.435 34.2C529.468 35.2 528.418 35.9833 527.285 36.55C526.151 37.0833 525.001 37.45 523.835 37.65C522.668 37.8833 521.518 38 520.385 38C518.318 38 516.485 37.65 514.885 36.95C513.285 36.25 511.918 35.3 510.785 34.1C509.685 32.8667 508.835 31.4833 508.235 29.95C507.668 28.3833 507.385 26.7667 507.385 25.1C507.385 23 507.718 21.1167 508.385 19.45C509.085 17.7833 510.035 16.3667 511.235 15.2C512.468 14 513.918 13.0833 515.585 12.45C517.251 11.8167 519.085 11.5 521.085 11.5ZM570.283 38C568.683 38 567.049 37.85 565.383 37.55C563.716 37.25 562.083 36.8333 560.483 36.3C558.916 35.7333 557.449 35.0833 556.083 34.35L557.083 22.7H557.883L560.483 29.75C560.983 31.3833 561.733 32.7667 562.733 33.9C563.766 35 564.983 35.8333 566.383 36.4C567.816 36.9667 569.366 37.25 571.033 37.25C572.533 37.25 573.799 37.05 574.833 36.65C575.899 36.2167 576.716 35.6167 577.283 34.85C577.849 34.0833 578.133 33.1667 578.133 32.1C578.133 30.9 577.833 29.8333 577.233 28.9C576.633 27.9333 575.616 26.9667 574.183 26C572.783 25 570.883 23.9333 568.483 22.8C565.416 21.2 562.983 19.7667 561.183 18.5C559.416 17.2333 558.149 15.9833 557.383 14.75C556.616 13.4833 556.233 12.1333 556.233 10.7C556.233 9.3 556.549 8.01667 557.183 6.85C557.849 5.68333 558.799 4.66667 560.033 3.8C561.266 2.93333 562.749 2.26666 564.483 1.8C566.216 1.33333 568.149 1.1 570.283 1.1C572.216 1.1 574.016 1.26666 575.683 1.6C577.383 1.93333 578.916 2.38333 580.283 2.95C581.683 3.51666 582.849 4.16667 583.783 4.9L581.933 15.85H581.133L579.933 11.35C579.266 9.08333 578.449 7.26667 577.483 5.9C576.516 4.5 575.383 3.48333 574.083 2.85C572.816 2.18333 571.333 1.85 569.633 1.85C567.966 1.85 566.533 2.05 565.333 2.45C564.166 2.85 563.266 3.43333 562.633 4.2C562.033 4.96667 561.733 5.88333 561.733 6.95C561.733 8.05 562.083 9.1 562.783 10.1C563.483 11.0667 564.666 12.1 566.333 13.2C567.999 14.2667 570.249 15.4833 573.083 16.85C575.316 17.8833 577.166 18.8667 578.633 19.8C580.133 20.7 581.333 21.6 582.233 22.5C583.166 23.4 583.833 24.3167 584.233 25.25C584.633 26.1833 584.833 27.2167 584.833 28.35C584.833 29.75 584.549 30.9833 583.983 32.05C583.449 33.0833 582.716 33.9833 581.783 34.75C580.849 35.4833 579.766 36.1 578.533 36.6C577.299 37.0667 575.966 37.4167 574.533 37.65C573.133 37.8833 571.716 38 570.283 38ZM596.534 38C594.434 38 592.934 37.4 592.034 36.2C591.134 35 590.684 33.2 590.684 30.8V13.25H587.284V12.75L590.734 12.25L596.934 4.05H597.684V11.8L602.834 12.75V13.25H597.684V33.1C597.684 34.2667 597.85 35.1167 598.184 35.65C598.55 36.15 599.034 36.4 599.634 36.4C600.167 36.4 600.684 36.2333 601.184 35.9C601.684 35.5333 602.184 35.0833 602.684 34.55L602.834 35.25C602.467 35.5833 602.034 35.9167 601.534 36.25C601.067 36.5833 600.567 36.8833 600.034 37.15C599.5 37.4167 598.934 37.6167 598.334 37.75C597.767 37.9167 597.167 38 596.534 38ZM606.015 37.25V36.75L608.715 36.1V13.85H605.815V13.3L615.715 11.5V19.35L616.115 19.75C616.582 18.65 617.032 17.6667 617.465 16.8C617.932 15.9 618.399 15.1667 618.865 14.6C619.665 13.5333 620.532 12.75 621.465 12.25C622.432 11.75 623.499 11.5 624.665 11.5C625.465 11.5 626.232 11.6667 626.965 12C627.699 12.3 628.299 12.7833 628.765 13.45C629.232 14.0833 629.465 14.9 629.465 15.9C629.465 16.6667 629.265 17.3667 628.865 18C628.465 18.6333 627.915 19.1333 627.215 19.5C626.515 19.8667 625.665 20.05 624.665 20.05C623.799 20.05 623.015 19.9 622.315 19.6C621.615 19.2667 621.065 18.8333 620.665 18.3C620.299 17.7333 620.115 17.1 620.115 16.4C620.115 16.1333 620.132 15.9 620.165 15.7C620.232 15.4667 620.282 15.25 620.315 15.05C620.382 14.85 620.415 14.6667 620.415 14.5C620.415 14.2667 620.332 14.15 620.165 14.15C619.865 14.15 619.499 14.4333 619.065 15C618.665 15.5667 618.182 16.4333 617.615 17.6C617.315 18.2667 616.999 19.0333 616.665 19.9C616.332 20.7667 616.015 21.6833 615.715 22.65V36.1L618.465 36.75V37.25H606.015ZM645.199 11.5C647.365 11.5 649.282 11.8167 650.949 12.45C652.615 13.0833 654.015 14 655.149 15.2C656.282 16.4 657.132 17.8333 657.699 19.5C658.299 21.1333 658.599 22.95 658.599 24.95C658.599 26.7833 658.299 28.5 657.699 30.1C657.132 31.6667 656.282 33.05 655.149 34.25C654.015 35.4167 652.615 36.3333 650.949 37C649.315 37.6667 647.399 38 645.199 38C642.999 38 641.049 37.6667 639.349 37C637.682 36.3333 636.282 35.4167 635.149 34.25C634.049 33.05 633.215 31.6667 632.649 30.1C632.082 28.5 631.799 26.7833 631.799 24.95C631.799 22.95 632.099 21.1333 632.699 19.5C633.332 17.8333 634.215 16.4 635.349 15.2C636.515 14 637.932 13.0833 639.599 12.45C641.265 11.8167 643.132 11.5 645.199 11.5ZM645.249 12.1C643.815 12.1 642.632 12.6667 641.699 13.8C640.765 14.9333 640.065 16.4667 639.599 18.4C639.165 20.3333 638.949 22.5167 638.949 24.95C638.949 26.65 639.065 28.2667 639.299 29.8C639.532 31.3 639.899 32.6167 640.399 33.75C640.932 34.8833 641.599 35.7833 642.399 36.45C643.199 37.0833 644.132 37.4 645.199 37.4C646.265 37.4 647.182 37.0833 647.949 36.45C648.749 35.8167 649.415 34.9333 649.949 33.8C650.482 32.6333 650.865 31.3 651.099 29.8C651.332 28.3 651.449 26.6833 651.449 24.95C651.449 23.15 651.332 21.4667 651.099 19.9C650.865 18.3333 650.499 16.9667 649.999 15.8C649.499 14.6333 648.849 13.7333 648.049 13.1C647.282 12.4333 646.349 12.1 645.249 12.1ZM671.72 36.25L674.42 36.75V37.25H662.02V36.75L664.72 36.25V2.35H661.77V1.8L671.72 -3.21865e-06V36.25ZM671.22 23.6V22.9C672.22 22.7667 673.337 22.45 674.57 21.95C675.803 21.4167 677.07 20.8167 678.37 20.15C679.437 19.6167 680.32 19.1333 681.02 18.7C681.72 18.2667 682.253 17.9 682.62 17.6C682.987 17.3 683.17 17.05 683.17 16.85C683.17 16.65 683.003 16.4833 682.67 16.35C682.337 16.2167 681.903 16.1 681.37 16C680.837 15.8667 680.27 15.7167 679.67 15.55C679.103 15.35 678.553 15.1167 678.02 14.85C677.487 14.55 677.053 14.1833 676.72 13.75C676.387 13.2833 676.22 12.7333 676.22 12.1C676.22 11.4333 676.42 10.85 676.82 10.35C677.253 9.81667 677.82 9.4 678.52 9.1C679.253 8.76667 680.087 8.6 681.02 8.6C682.053 8.6 682.953 8.78333 683.72 9.15C684.52 9.51667 685.137 10.0333 685.57 10.7C686.037 11.3333 686.27 12.0667 686.27 12.9C686.27 13.8667 685.97 14.7833 685.37 15.65C684.803 16.5167 683.92 17.3833 682.72 18.25C682.053 18.75 681.22 19.3 680.22 19.9C679.22 20.4667 678.07 21.1167 676.77 21.85V22.4H680.92C681.52 23.8333 682.037 25.1333 682.47 26.3C682.937 27.4667 683.353 28.5333 683.72 29.5C684.32 30.7667 684.87 31.8833 685.37 32.85C685.87 33.7833 686.337 34.55 686.77 35.15C687.203 35.75 687.603 36.15 687.97 36.35C688.137 36.4167 688.287 36.45 688.42 36.45C688.587 36.45 688.737 36.4 688.87 36.3V36.9C688.437 37.1667 688.003 37.3833 687.57 37.55C687.17 37.7167 686.737 37.8333 686.27 37.9C685.803 37.9667 685.287 38 684.72 38C683.62 38 682.603 37.7333 681.67 37.2C680.737 36.6333 679.853 35.8 679.02 34.7C678.22 33.5667 677.453 32.1667 676.72 30.5C676.253 29.3333 675.77 28.2 675.27 27.1C674.803 26 674.32 24.8333 673.82 23.6H671.22ZM704.19 11.5C706.957 11.5 709.24 12.05 711.04 13.15C712.84 14.25 714.19 15.7167 715.09 17.55C715.99 19.3833 716.44 21.45 716.44 23.75H697.49V23.25L709.94 22.6C709.94 20.3667 709.74 18.4667 709.34 16.9C708.94 15.3333 708.307 14.15 707.44 13.35C706.607 12.5167 705.507 12.1 704.14 12.1C702.807 12.1 701.64 12.5333 700.64 13.4C699.674 14.2667 698.924 15.5833 698.39 17.35C697.89 19.0833 697.64 21.3167 697.64 24.05C697.64 25.55 697.824 27 698.19 28.4C698.59 29.7667 699.157 31.0167 699.89 32.15C700.657 33.25 701.59 34.1333 702.69 34.8C703.79 35.4333 705.074 35.75 706.54 35.75C707.44 35.75 708.34 35.6167 709.24 35.35C710.14 35.0833 710.99 34.7 711.79 34.2C712.59 33.7 713.324 33.1 713.99 32.4C714.657 31.6667 715.207 30.8167 715.64 29.85L716.19 30.35C715.424 31.9167 714.54 33.2 713.54 34.2C712.574 35.2 711.524 35.9833 710.39 36.55C709.257 37.0833 708.107 37.45 706.94 37.65C705.774 37.8833 704.624 38 703.49 38C701.424 38 699.59 37.65 697.99 36.95C696.39 36.25 695.024 35.3 693.89 34.1C692.79 32.8667 691.94 31.4833 691.34 29.95C690.774 28.3833 690.49 26.7667 690.49 25.1C690.49 23 690.824 21.1167 691.49 19.45C692.19 17.7833 693.14 16.3667 694.34 15.2C695.574 14 697.024 13.0833 698.69 12.45C700.357 11.8167 702.19 11.5 704.19 11.5Z" fill="#C2C2C2" fill-opacity="0.73"/>
</g>
<defs>
<filter id="filter0_in_2017_52347" x="0" y="0" width="716.44" height="52.3" filterUnits="userSpaceOnUse" color-interpolation-filters="sRGB">
<feFlood flood-opacity="0" result="BackgroundImageFix"/>
<feBlend mode="normal" in="SourceGraphic" in2="BackgroundImageFix" result="shape"/>
<feColorMatrix in="SourceAlpha" type="matrix" values="0 0 0 0 0 0 0 0 0 0 0 0 0 0 0 0 0 0 127 0" result="hardAlpha"/>
<feOffset dy="13"/>
<feGaussianBlur stdDeviation="2.15"/>
<feComposite in2="hardAlpha" operator="arithmetic" k2="-1" k3="1"/>
<feColorMatrix type="matrix" values="0 0 0 0 0 0 0 0 0 0 0 0 0 0 0 0 0 0 0.44 0"/>
<feBlend mode="normal" in2="shape" result="effect1_innerShadow_2017_52347"/>
<feTurbulence type="fractalNoise" baseFrequency="2 2" stitchTiles="stitch" numOctaves="3" result="noise" seed="8743" />
<feColorMatrix in="noise" type="luminanceToAlpha" result="alphaNoise" />
<feComponentTransfer in="alphaNoise" result="coloredNoise1">
<feFuncA type="discrete" tableValues="0 0 0 0 1 1 1 1 1 1 1 1 1 1 1 1 1 1 1 1 1 1 1 1 1 1 1 1 1 1 1 1 1 1 1 1 1 1 1 1 1 1 1 1 1 1 0 0 0 0 0 0 0 0 0 0 0 0 0 0 0 0 0 0 0 0 0 0 0 0 0 0 0 0 0 0 0 0 0 0 0 0 0 0 0 0 0 0 0 0 0 0 0 0 0 0 0 0 0 0 "/>
</feComponentTransfer>
<feComposite operator="in" in2="effect1_innerShadow_2017_52347" in="coloredNoise1" result="noise1Clipped" />
<feFlood flood-color="#000000" result="color1Flood" />
<feComposite operator="in" in2="noise1Clipped" in="color1Flood" result="color1" />
<feMerge result="effect2_noise_2017_52347">
<feMergeNode in="effect1_innerShadow_2017_52347" />
<feMergeNode in="color1" />
</feMerge>
</filter>
</defs>
</svg>
