<svg width="35" height="4768" viewBox="0 0 35 4768" fill="none" xmlns="http://www.w3.org/2000/svg">
<path d="M0 -19H-1V5324H0V-19Z" fill="#65988D"/>
<path d="M-1.44789 65.75L29.5476 66.2795C28.5853 122.605 28.0962 179.098 28.0803 235.759L-2.91967 235.75L-33.9197 235.741C-33.9037 178.735 -33.4116 121.895 -32.4434 65.2205L-1.44789 65.75ZM-2.91967 235.75L28.0803 235.759C28.0644 292.668 27.8399 349.577 27.4068 406.486L-3.59233 406.25L-34.5914 406.014C-34.1595 349.257 -33.9356 292.499 -33.9197 235.741L-2.91967 235.75ZM-3.59233 406.25L27.4068 406.486C26.9783 462.787 28.0005 519.088 30.4735 575.39L-0.496657 576.75L-31.4668 578.11C-33.9864 520.746 -35.028 463.38 -34.5914 406.014L-3.59233 406.25ZM-0.496657 576.75L30.4735 575.39C33.0076 633.083 33.1357 690.779 30.858 748.473L-0.117891 747.25L-31.0938 746.027C-28.884 690.055 -29.0083 634.083 -31.4668 578.11L-0.496657 576.75ZM-0.117891 747.25L30.858 748.473C28.6266 804.993 27.2542 861.512 26.7408 918.032L-4.25796 917.75L-35.2567 917.468C-34.7376 860.321 -33.3499 803.174 -31.0938 746.027L-0.117891 747.25ZM-4.25796 917.75L26.7408 918.032C26.2286 974.415 26.9425 1030.8 28.8824 1087.18L-2.09922 1088.25L-33.0809 1089.32C-35.0518 1032.03 -35.777 974.751 -35.2567 917.468L-4.25796 917.75ZM-2.09922 1088.25L28.8824 1087.18C30.8616 1144.71 30.917 1202.23 29.0485 1259.76L-1.93518 1258.75L-32.9188 1257.74C-31.0952 1201.6 -31.1492 1145.46 -33.0809 1089.32L-2.09922 1088.25ZM-1.93518 1258.75L29.0485 1259.76C27.2202 1316.04 26.8881 1372.32 28.0521 1428.61L-2.94128 1429.25L-33.9346 1429.89C-35.1213 1372.51 -34.7827 1315.13 -32.9188 1257.74L-1.93518 1258.75ZM-2.94128 1429.25L28.0521 1428.61C29.2296 1485.55 30.1174 1542.49 30.7156 1599.42L-0.282706 1599.75L-31.281 1600.08C-31.8769 1543.35 -32.7615 1486.62 -33.9346 1429.89L-2.94128 1429.25ZM-0.282706 1599.75L30.7156 1599.42C31.3164 1656.62 30.9201 1713.81 29.5268 1771.01L-1.46401 1770.25L-32.4548 1769.49C-31.079 1713.02 -30.6877 1656.55 -31.281 1600.08L-0.282706 1599.75ZM-1.46401 1770.25L29.5268 1771.01C28.1543 1827.34 28.1311 1883.68 29.4574 1940.02L-1.53402 1940.75L-32.5254 1941.48C-33.875 1884.15 -33.8514 1826.82 -32.4548 1769.49L-1.46401 1770.25ZM-1.53402 1940.75L29.4574 1940.02C30.8093 1997.45 30.5091 2054.88 28.5568 2112.3L-2.4253 2111.25L-33.4074 2110.2C-31.4955 2053.96 -31.2015 1997.72 -32.5254 1941.48L-1.53402 1940.75ZM-2.4253 2111.25L28.5568 2112.3C26.6509 2168.37 26.8343 2224.43 29.1072 2280.49L-1.86732 2281.75L-32.8419 2283.01C-35.1771 2225.4 -35.3657 2167.8 -33.4074 2110.2L-2.4253 2111.25ZM-1.86732 2281.75L29.1072 2280.49C31.426 2337.69 32.7405 2394.89 33.0506 2452.08L2.05107 2452.25L-28.9485 2452.42C-29.2547 2395.95 -30.5525 2339.48 -32.8419 2283.01L-1.86732 2281.75ZM2.05107 2452.25L33.0506 2452.08C33.359 2508.96 33.5534 2565.83 33.6339 2622.71L2.63389 2622.75L-28.3661 2622.79C-28.4464 2566 -28.6405 2509.21 -28.9485 2452.42L2.05107 2452.25ZM2.63389 2622.75L33.6339 2622.71C33.7146 2679.84 32.978 2736.96 31.4238 2794.09L0.435283 2793.25L-30.5533 2792.41C-29.0152 2735.87 -28.2861 2679.33 -28.3661 2622.79L2.63389 2622.75ZM0.435283 2793.25L31.4238 2794.09C29.8787 2850.89 28.4347 2907.69 27.0919 2964.48L-3.89947 2963.75L-34.8908 2963.02C-33.5462 2906.15 -32.1003 2849.28 -30.5533 2792.41L0.435283 2793.25ZM-3.89947 2963.75L27.0919 2964.48C25.7675 3020.5 26.6578 3076.52 29.7631 3132.53L-1.18939 3134.25L-32.1419 3135.97C-35.3375 3078.32 -36.2539 3020.67 -34.8908 2963.02L-3.89947 2963.75ZM-1.18939 3134.25L29.7631 3132.53C32.9661 3190.32 33.5104 3248.1 31.3956 3305.88L0.416324 3304.75L-30.5629 3303.62C-28.5177 3247.73 -29.044 3191.85 -32.1419 3135.97L-1.18939 3134.25ZM0.416324 3304.75L31.3956 3305.88C29.326 3362.43 28.0323 3418.98 27.5145 3475.53L-3.48421 3475.25L-34.4829 3474.97C-33.9599 3417.85 -32.6533 3360.73 -30.5629 3303.62L0.416324 3304.75ZM-3.48421 3475.25L27.5145 3475.53C26.9952 3532.25 26.8063 3588.96 26.9477 3645.67L-4.05222 3645.75L-35.0521 3645.83C-35.1941 3588.87 -35.0044 3531.92 -34.4829 3474.97L-3.48421 3475.25ZM-4.05222 3645.75L26.9477 3645.67C27.0896 3702.58 27.0324 3759.48 26.7762 3816.39L-4.22349 3816.25L-35.2232 3816.11C-34.9676 3759.35 -34.9106 3702.59 -35.0521 3645.83L-4.05222 3645.75ZM-4.22349 3816.25L26.7762 3816.39C26.5227 3872.7 27.6881 3929.01 30.2728 3985.33L-0.694644 3986.75L-31.662 3988.17C-34.2943 3930.82 -35.4814 3873.46 -35.2232 3816.11L-4.22349 3816.25ZM-0.694644 3986.75L30.2728 3985.33C32.9142 4042.88 33.5509 4100.43 32.1829 4157.99L1.19166 4157.25L-29.7996 4156.51C-28.4658 4100.4 -29.0866 4044.29 -31.662 3988.17L-0.694644 3986.75ZM1.19166 4157.25L32.1829 4157.99C30.8344 4214.72 29.7592 4271.45 28.9573 4328.19L-2.03958 4327.75L-33.0365 4327.31C-32.2318 4270.38 -31.1529 4213.45 -29.7996 4156.51L1.19166 4157.25ZM-2.03958 4327.75L28.9573 4328.19C28.157 4384.81 27.931 4441.44 28.2791 4498.06L-2.72032 4498.25L-33.7197 4498.44C-34.0704 4441.4 -33.8427 4384.35 -33.0365 4327.31L-2.03958 4327.75ZM-2.72032 4498.25L28.2791 4498.06C28.6299 4555.12 28.3462 4612.19 27.4279 4669.25L-3.56808 4668.75L-34.5641 4668.25C-33.6532 4611.65 -33.3717 4555.04 -33.7197 4498.44L-2.72032 4498.25ZM-3.56808 4668.75L27.4279 4669.25C26.5205 4725.64 26.8304 4782.02 28.3576 4838.41L-2.63105 4839.25L-33.6197 4840.09C-35.171 4782.81 -35.4858 4725.53 -34.5641 4668.25L-3.56808 4668.75ZM-2.63105 4839.25L28.3576 4838.41C29.9121 4895.81 29.8993 4953.21 28.319 5010.6L-2.66926 5009.75L-33.6575 5008.9C-32.1083 4952.63 -32.0957 4896.36 -33.6197 4840.09L-2.63105 4839.25ZM-2.66926 5009.75L28.319 5010.6C26.7737 5066.73 27.1435 5122.86 29.4286 5178.99L-1.54577 5180.25L-32.5201 5181.51C-34.8625 5123.97 -35.2417 5066.44 -33.6575 5008.9L-2.66926 5009.75ZM-1.54577 5180.25L29.4286 5178.99C30.5844 5207.38 31.3114 5226.69 31.5991 5236.74C31.6709 5239.25 31.7198 5241.33 31.7386 5242.88C31.7477 5243.63 31.7528 5244.48 31.7398 5245.27C31.7337 5245.64 31.7198 5246.29 31.6752 5247.04C31.6534 5247.4 31.6092 5248.06 31.5171 5248.86C31.4707 5249.27 31.241 5251.4 30.4929 5253.99C30.2234 5254.93 29.1489 5258.69 26.3832 5262.78C24.2 5266.01 13.3445 5279.82 -5.76603 5275.75C-13.3432 5274.14 -18.3376 5270.16 -20.876 5267.7C-23.4859 5265.17 -25.0885 5262.73 -25.9186 5261.34C-27.558 5258.6 -28.3876 5256.23 -28.6768 5255.38C-29.3497 5253.4 -29.6697 5251.79 -29.7568 5251.35C-29.8938 5250.66 -29.9836 5250.09 -30.0343 5249.75C-30.2089 5248.57 -30.3145 5247.44 -30.3647 5246.89C-30.4934 5245.48 -30.6346 5243.57 -30.7855 5241.35L0.143397 5239.25L31.0723 5237.15C31.2183 5239.3 31.3193 5240.61 31.3781 5241.25C31.4216 5241.73 31.3961 5241.33 31.2879 5240.6C31.2538 5240.37 31.1797 5239.9 31.0576 5239.28C30.9854 5238.92 30.6794 5237.35 30.0197 5235.42C29.7371 5234.58 28.9139 5232.23 27.2806 5229.5C26.4536 5228.12 24.854 5225.68 22.2471 5223.15C19.7116 5220.7 14.7202 5216.72 7.14591 5215.11C-11.9589 5211.04 -22.8089 5224.84 -24.9868 5228.07C-27.7471 5232.15 -28.8165 5235.9 -29.0812 5236.82C-29.8196 5239.38 -30.0403 5241.46 -30.0787 5241.79C-30.1627 5242.53 -30.1998 5243.09 -30.2152 5243.35C-30.2471 5243.89 -30.2518 5244.25 -30.252 5244.26C-30.2533 5244.34 -30.2502 5244.18 -30.2568 5243.63C-30.2694 5242.6 -30.3065 5240.92 -30.3755 5238.51C-30.6508 5228.9 -31.3622 5209.95 -32.5201 5181.51L-1.54577 5180.25ZM0.143397 5239.25L-30.7855 5241.35C-32.0805 5222.27 -32.0994 5183.71 -31.0496 5127.17L-0.0549005 5127.75L30.9398 5128.33C29.8787 5185.46 29.9921 5221.23 31.0723 5237.15L0.143397 5239.25ZM-0.0549005 5127.75L-31.0496 5127.17C-30.0017 5070.75 -30.0654 5014.32 -31.2407 4957.9L-0.247464 4957.25L30.7458 4956.6C31.9381 5013.84 32.0027 5071.09 30.9398 5128.33L-0.0549005 5127.75ZM-0.247464 4957.25L-31.2407 4957.9C-32.4277 4900.91 -33.2025 4843.93 -33.5654 4786.95L-2.56603 4786.75L28.4333 4786.55C28.7943 4843.24 29.5651 4899.92 30.7458 4956.6L-0.247464 4957.25ZM-2.56603 4786.75L-33.5654 4786.95C-33.9287 4729.9 -33.7116 4672.86 -32.9143 4615.82L-1.91735 4616.25L29.0796 4616.68C28.2882 4673.31 28.0728 4729.93 28.4333 4786.55L-2.56603 4786.75ZM-1.91735 4616.25L-32.9143 4615.82C-32.1175 4558.81 -30.8303 4501.79 -29.0528 4444.78L1.93216 4445.75L32.9171 4446.72C31.1507 4503.37 29.8715 4560.03 29.0796 4616.68L-1.91735 4616.25ZM1.93216 4445.75L-29.0528 4444.78C-27.3087 4388.84 -27.9826 4332.9 -31.0747 4276.96L-0.121985 4275.25L30.8308 4273.54C34.0214 4331.26 34.7169 4388.99 32.9171 4446.72L1.93216 4445.75ZM-0.121985 4275.25L-31.0747 4276.96C-34.248 4219.55 -35.8127 4162.14 -35.7686 4104.73L-4.76859 4104.75L26.2314 4104.77C26.1882 4161.03 27.7212 4217.28 30.8308 4273.54L-0.121985 4275.25ZM-4.76859 4104.75L-35.7686 4104.73C-35.7247 4047.68 -35.0929 3990.63 -33.8731 3933.59L-2.88018 3934.25L28.1127 3934.91C26.902 3991.53 26.2749 4048.15 26.2314 4104.77L-4.76859 4104.75ZM-2.88018 3934.25L-33.8731 3933.59C-32.6572 3876.72 -31.3553 3819.86 -29.9674 3762.99L1.02341 3763.75L32.0142 3764.51C30.6278 3821.31 29.3273 3878.11 28.1127 3934.91L-2.88018 3934.25ZM1.02341 3763.75L-29.9674 3762.99C-28.5962 3706.82 -29.0062 3650.64 -31.1972 3594.46L-0.22079 3593.25L30.7557 3592.04C32.9978 3649.53 33.4173 3707.02 32.0142 3764.51L1.02341 3763.75ZM-0.22079 3593.25L-31.1972 3594.46C-33.4276 3537.27 -34.682 3480.09 -34.9606 3422.9L-3.96097 3422.75L27.0387 3422.6C27.3138 3479.08 28.5528 3535.56 30.7557 3592.04L-0.22079 3593.25ZM-3.96097 3422.75L-34.9606 3422.9C-35.2394 3365.67 -34.4247 3308.44 -32.5166 3251.22L-1.53384 3252.25L29.4489 3253.28C27.5671 3309.72 26.7637 3366.16 27.0387 3422.6L-3.96097 3422.75ZM-1.53384 3252.25L-32.5166 3251.22C-30.6457 3195.1 -30.734 3138.99 -32.7815 3082.88L-1.80214 3081.75L29.1772 3080.62C31.2774 3138.17 31.3679 3195.73 29.4489 3253.28L-1.53384 3252.25ZM-1.80214 3081.75L-32.7815 3082.88C-34.8703 3025.64 -35.8212 2968.39 -35.6341 2911.15L-4.63424 2911.25L26.3656 2911.35C26.1812 2967.77 27.1184 3024.2 29.1772 3080.62L-1.80214 3081.75ZM-4.63424 2911.25L-35.6341 2911.15C-35.4485 2854.38 -35.4368 2797.61 -35.5988 2740.84L-4.59894 2740.75L26.4009 2740.66C26.5633 2797.56 26.5516 2854.45 26.3656 2911.35L-4.63424 2911.25ZM-4.59894 2740.75L-35.5988 2740.84C-35.7627 2683.43 -34.323 2626.02 -31.2799 2568.61L-0.323339 2570.25L30.6332 2571.89C27.6511 2628.15 26.2404 2684.41 26.4009 2740.66L-4.59894 2740.75ZM-0.323339 2570.25L-31.2799 2568.61C-28.3011 2512.41 -27.0645 2456.22 -27.5698 2400.03L3.42897 2399.75L34.4277 2399.47C34.9446 2456.95 33.6797 2514.42 30.6332 2571.89L-0.323339 2570.25ZM3.42897 2399.75L-27.5698 2400.03C-28.0794 2343.36 -29.0459 2286.7 -30.4694 2230.03L0.52083 2229.25L31.5111 2228.47C32.9429 2285.47 33.9151 2342.47 34.4277 2399.47L3.42897 2399.75ZM0.52083 2229.25L-30.4694 2230.03C-31.9113 2172.63 -31.7777 2115.23 -30.0685 2057.83L0.917752 2058.75L31.904 2059.67C30.2286 2115.94 30.0976 2172.21 31.5111 2228.47L0.52083 2229.25ZM0.917752 2058.75L-30.0685 2057.83C-28.385 2001.29 -27.5059 1944.75 -27.4314 1888.21L3.5686 1888.25L34.5686 1888.29C34.4932 1945.42 33.6051 2002.55 31.904 2059.67L0.917752 2058.75ZM3.5686 1888.25L-27.4314 1888.21C-27.3568 1831.64 -28.003 1775.07 -29.3701 1718.5L1.62089 1717.75L32.6118 1717C33.9916 1774.1 34.6439 1831.19 34.5686 1888.29L3.5686 1888.25ZM1.62089 1717.75L-29.3701 1718.5C-30.7508 1661.36 -31.2966 1604.23 -31.0076 1547.09L-0.00801987 1547.25L30.9916 1547.41C30.7056 1603.94 31.2457 1660.47 32.6118 1717L1.62089 1717.75ZM-0.00801987 1547.25L-31.0076 1547.09C-30.7217 1490.56 -31.2576 1434.03 -32.6153 1377.49L-1.62426 1376.75L29.3668 1376.01C30.739 1433.14 31.2806 1490.27 30.9916 1547.41L-0.00801987 1547.25ZM-1.62426 1376.75L-32.6153 1377.49C-33.9985 1319.9 -33.2651 1262.31 -30.4151 1204.72L0.546973 1206.25L31.5091 1207.78C28.7341 1263.86 28.0201 1319.93 29.3668 1376.01L-1.62426 1376.75ZM0.546973 1206.25L-30.4151 1204.72C-27.6352 1148.54 -26.6449 1092.37 -27.4443 1036.19L3.5526 1035.75L34.5495 1035.31C35.3675 1092.8 34.354 1150.29 31.5091 1207.78L0.546973 1206.25ZM3.5526 1035.75L-27.4443 1036.19C-28.2517 979.45 -29.3115 922.708 -30.6237 865.967L0.368042 865.25L31.3598 864.533C32.6762 921.459 33.7394 978.384 34.5495 1035.31L3.5526 1035.75ZM0.368042 865.25L-30.6237 865.967C-31.9471 808.74 -32.1815 751.514 -31.3268 694.287L-0.330241 694.75L30.6663 695.213C29.8234 751.653 30.0545 808.093 31.3598 864.533L0.368042 865.25ZM-0.330241 694.75L-31.3268 694.287C-30.4848 637.91 -30.8881 581.533 -32.5367 525.156L-1.54993 524.25L29.4368 523.344C31.1121 580.633 31.5219 637.923 30.6663 695.213L-0.330241 694.75ZM-1.54993 524.25L-32.5367 525.156C-34.2092 467.961 -34.8793 410.766 -34.5469 353.57L-3.54738 353.75L27.4521 353.93C27.1239 410.401 27.7855 466.872 29.4368 523.344L-1.54993 524.25ZM-3.54738 353.75L-34.5469 353.57C-34.2172 296.847 -34.1901 240.124 -34.4657 183.401L-3.46609 183.25L27.5335 183.099C27.8102 240.043 27.783 296.987 27.4521 353.93L-3.54738 353.75ZM-3.46609 183.25L-34.4657 183.401C-34.7437 126.179 -33.74 77.5642 -31.4122 37.6932L-0.464931 39.5L30.4824 41.3067C28.2563 79.4357 27.2593 126.654 27.5335 183.099L-3.46609 183.25ZM-0.464931 39.5L-31.4122 37.6932C-30.2771 18.2505 -29.5651 3.94299 -29.2552 -5.40255C-29.0973 -10.1622 -29.0601 -13.1816 -29.0882 -14.8085C-29.1052 -15.7899 -29.1352 -15.4383 -29.0183 -14.449C-28.9921 -14.2271 -28.7648 -12.0749 -27.8857 -9.32679C-27.5079 -8.14549 -26.3333 -4.61493 -23.555 -0.774078C-20.9473 2.8309 -12.8601 12 1.4752 12V-19V-50C15.8719 -50 24.0175 -40.7928 26.6802 -37.1117C29.5136 -33.1946 30.7401 -29.5498 31.1667 -28.2162C32.1432 -25.1634 32.4553 -22.5541 32.5535 -21.7229C32.8144 -19.5149 32.8774 -17.3351 32.9025 -15.879C32.9586 -12.6309 32.8762 -8.33777 32.7107 -3.34747C32.374 6.80697 31.6242 21.7494 30.4824 41.3067L-0.464931 39.5ZM1.4752 -19V12C11.4059 12 18.4486 7.40164 22.1404 4.08672C25.653 0.932728 27.6029 -2.28324 28.4689 -3.83893C30.2241 -6.9918 30.9702 -9.68972 31.1568 -10.3608C31.4541 -11.4294 31.6137 -12.2496 31.6797 -12.6056C31.7563 -13.0187 31.7974 -13.3057 31.8119 -13.4099C31.8412 -13.6208 31.7762 -13.1622 31.6651 -11.5599C31.459 -8.58497 31.2292 -3.72604 30.9884 3.25608C30.5109 17.1017 30.0295 38.0696 29.5476 66.2795L-1.44789 65.75L-32.4434 65.2205C-31.9601 36.9304 -31.4716 15.5233 -30.9748 1.11892C-30.7284 -6.02396 -30.4698 -11.7588 -30.1865 -15.8464C-30.0528 -17.7753 -29.8729 -19.9652 -29.5983 -21.9416C-29.489 -22.7279 -29.2053 -24.7116 -28.575 -26.9771C-28.327 -27.8689 -27.5194 -30.7323 -25.7029 -33.9955C-24.8061 -35.6064 -22.8255 -38.8638 -19.2822 -42.0453C-15.5597 -45.3878 -8.48622 -50 1.4752 -50V-19Z" fill="#0B786D"/>
</svg>
