<svg width="326" height="83" viewBox="0 0 326 83" fill="none" xmlns="http://www.w3.org/2000/svg">
<path opacity="0.44" d="M3.1777 50.2012C3.10679 44.5597 3.56199 37.5754 3.28189 31.9938C3.27796 31.9156 3.27402 31.8373 3.27009 31.7591C3.1556 29.4779 2.99029 27.1535 2.79042 24.3412C2.76496 23.983 2.73833 23.6159 2.71178 23.241C2.5244 20.5945 2.30745 17.4682 2.06862 13.5L1.66468 2.78827L13.2159 2.35268C14.2464 2.29065 15.3337 2.22715 16.4841 2.16231C35.222 1.10617 49.9961 1.80805 54.5916 2.02666C63.8083 2.46511 73.6402 2.47439 87.0558 2.48668C88.2826 2.4878 89.5398 2.48714 90.8289 2.48865C91.8733 2.48987 92.7379 2.13485 92.7618 1.69443C92.7852 1.25382 91.9583 0.895538 90.9135 0.894318C89.6512 0.892838 88.4211 0.89151 87.2223 0.890388C87.2169 0.890388 87.2114 0.890388 87.206 0.890388C73.7061 0.877739 64.0879 0.868317 55.0885 0.440201C50.3928 0.216827 35.2559 -0.500458 16.0555 0.581741C15.0639 0.637634 14.1187 0.692474 13.2159 0.746201L-1.90735e-06 1.24457L0.462145 13.5C0.714008 17.732 0.941386 21.0309 1.13712 23.7952C1.16311 24.1624 1.18907 24.5203 1.21379 24.8682C1.21444 24.8763 1.2151 24.8845 1.21575 24.8927C1.41686 27.7234 1.57602 29.9499 1.6856 32.1331C1.68756 32.1795 1.68953 32.2259 1.69149 32.2723C1.97477 37.9167 1.5146 44.7678 1.58337 50.2394C1.59671 51.284 1.96482 52.123 2.40511 52.1123C2.84512 52.1011 3.19051 51.2452 3.1777 50.2012ZM319.019 56.7449C318.593 60.7157 318.512 65.6425 318.6 70.5L318.759 74.713L314.216 74.8843C312.41 74.917 310.613 74.9731 308.879 75.0436C302.436 75.3055 296.605 75.7766 293.861 76.0659C291.178 76.3486 288.197 76.4401 284.641 76.4964C283.825 76.5093 282.979 76.5203 282.104 76.5318C279.215 76.5697 275.999 76.6122 272.47 76.7382C259.505 77.201 251.052 77.2206 245.015 77.1786C243.774 77.1699 242.618 77.158 241.537 77.1471C241.535 77.1471 241.534 77.1471 241.532 77.1471C237.45 77.1058 234.405 77.0756 231.605 77.2572C226.62 77.5805 222.55 77.8671 217.637 78.4269C210.863 79.1988 201.213 79.1072 194.933 78.5763C194.589 78.5472 194.236 78.5162 193.88 78.4859C189.327 78.0986 183.722 77.6222 175.317 77.267C168.334 76.9719 162.248 76.9952 156.862 77.0783C155.318 77.1021 153.845 77.1317 152.43 77.1589C148.861 77.2275 145.666 77.2892 142.657 77.2533C123.993 77.0304 113.23 77.3187 106.466 77.7526C101.263 78.0863 98.3569 78.5158 96.2603 78.826C95.6267 78.9197 95.0672 79.0038 94.5404 79.0697C89.8424 79.6575 85.5293 79.9217 80.3408 80.2394C79.1893 80.31 77.9914 80.3836 76.7398 80.4635C72.5535 80.7309 69.4339 80.6846 66.9877 80.5717C65.9177 80.5222 64.9762 80.4613 64.0882 80.4026C64.0719 80.4013 64.0555 80.4 64.0391 80.3987C63.9153 80.3905 63.7925 80.3831 63.6705 80.3751C63.5786 80.369 63.4868 80.3613 63.3948 80.3554C63.3586 80.3475 63.3262 80.3423 63.302 80.3377C63.2828 80.3341 63.2679 80.3315 63.2583 80.3299C63.2565 80.3292 63.2546 80.3286 63.2528 80.3279C63.0786 80.2973 62.9287 80.2852 62.8979 80.2827C62.8442 80.2782 62.7966 80.2762 62.7723 80.2748C62.6438 80.2675 62.4783 80.2633 62.3682 80.2611C62.0854 80.2554 61.5939 80.2487 60.8339 80.2414C60.1722 80.2184 59.5374 80.1792 58.7426 80.1293C58.6925 80.1261 58.6425 80.1228 58.5925 80.1195C57.8174 80.0708 56.9103 80.015 55.7722 79.9603C54.7367 79.9105 53.7842 80.2245 53.6454 80.6621C53.5071 81.0998 54.2344 81.4948 55.2699 81.5448C56.3422 81.5963 57.1917 81.6494 57.9673 81.6981C58.0163 81.7014 58.0655 81.7047 58.1147 81.7079C58.9233 81.7587 59.6892 81.8062 60.5145 81.8338C60.7907 81.843 61.0756 81.8501 61.3417 81.8554C61.8208 81.8751 62.3657 81.909 63.018 81.9517C63.149 81.9603 63.284 81.9681 63.4221 81.9773C64.3084 82.036 65.3404 82.1044 66.5044 82.1581C69.2289 82.2839 72.6808 82.3311 77.2367 82.0402C78.4314 81.9639 79.5894 81.8931 80.7203 81.8239C85.9291 81.5055 90.5637 81.223 95.5505 80.5992C96.2347 80.5136 96.891 80.4158 97.5927 80.3122C99.6724 80.0051 102.156 79.6377 106.965 79.3292C113.409 78.916 123.916 78.626 142.474 78.8476C145.633 78.8853 149.04 78.819 152.671 78.7493C154.057 78.7227 155.477 78.697 156.927 78.6746C162.23 78.5928 168.124 78.5705 174.867 78.8555C183.084 79.2027 188.536 79.6652 193.069 80.0507C193.225 80.0645 193.382 80.0782 193.538 80.092C193.733 80.1085 193.926 80.125 194.117 80.1411C200.809 80.707 211.076 80.8191 218.56 79.9662C223.257 79.431 227.153 79.1554 232.11 78.8338C234.548 78.6757 237.153 78.7018 241.152 78.7414C242.275 78.7526 243.509 78.7634 244.879 78.7729C251.024 78.8157 259.605 78.7966 272.715 78.3286C276.134 78.2066 279.209 78.1658 282.083 78.1281C282.975 78.1164 283.851 78.1043 284.709 78.0907C288.283 78.0342 291.609 77.9418 294.71 77.615C297.258 77.3463 302.902 76.8868 309.168 76.632C310.838 76.5642 312.535 76.5116 314.216 76.4804L320.413 76.2467L320.196 70.5C320.11 65.8249 320.189 61.2686 320.566 57.7469C320.62 57.249 320.672 56.7469 320.725 56.2453C321.183 51.9258 321.65 47.5219 322.426 43.976C324.851 36.0747 325.612 24.9866 325.727 13.5L325.277 1.57185L314.216 1.98897C302.598 1.87232 290.573 2.41552 281.025 2.56335C280.776 2.56728 280.526 2.57121 280.277 2.57514C258.359 2.91418 242.431 2.87105 237.001 2.85626C236.748 2.85558 236.518 2.85482 236.31 2.8543C236.126 2.85383 235.958 2.8526 235.811 2.85233C233.599 2.84824 231.642 2.79161 229.592 2.73241C229.48 2.72913 229.368 2.72586 229.256 2.72259C227.089 2.66022 224.815 2.59931 222.127 2.60463C212.133 2.62449 203.986 2.55189 196.936 2.47488C195.631 2.46063 194.362 2.44769 193.125 2.4336C193.121 2.4336 193.118 2.4336 193.114 2.4336C187.685 2.37174 182.868 2.31607 178.297 2.31565C169.963 2.31487 164.333 2.21399 159.954 2.1053C158.58 2.07121 157.315 2.03641 156.12 2.00307C153.538 1.931 151.283 1.86784 148.957 1.8458C144.582 1.80437 140.555 1.69481 136.589 1.58827C136.235 1.57878 135.882 1.57017 135.53 1.56075C131.23 1.44592 126.973 1.33946 122.471 1.33664C121.427 1.33599 120.56 1.69418 120.538 2.13479C120.517 2.575 121.348 2.93228 122.392 2.93293C126.764 2.93568 130.917 3.03832 135.216 3.15311C135.57 3.16258 135.926 3.17302 136.283 3.1826C140.239 3.28889 144.34 3.39792 148.795 3.44013C151.038 3.46137 153.169 3.5208 155.7 3.5915C156.908 3.62524 158.209 3.66174 159.656 3.69766C164.102 3.80801 169.806 3.91115 178.221 3.91194C182.737 3.91236 187.491 3.96613 192.917 4.02792C194.162 4.04211 195.443 4.05675 196.764 4.07117C203.831 4.14837 212.021 4.22089 222.07 4.20093C224.609 4.19588 226.765 4.25285 228.923 4.31495C229.044 4.31822 229.165 4.3215 229.286 4.32478C231.318 4.3835 233.384 4.44431 235.721 4.44862C236.033 4.4492 236.431 4.44929 236.911 4.45059C242.349 4.4654 258.342 4.50974 280.34 4.16947C280.408 4.16816 280.476 4.16685 280.544 4.16553C295.284 3.93753 303.6 3.80877 309.861 4.20289C311.432 4.30182 312.878 4.37733 314.216 4.43553L322.926 4.10707L323.28 13.5C323.156 16.3687 323.11 18.7437 323.085 20.8107C323.077 21.3886 323.07 21.9355 323.065 22.457C323.041 24.7098 323.022 26.4902 322.911 28.2695C322.577 33.6521 322.029 37.5119 321.007 42.1823C320.14 46.1415 319.627 50.9917 319.178 55.2406C319.178 55.247 319.177 55.2534 319.176 55.2597C319.123 55.7639 319.071 56.2602 319.019 56.7449ZM40.7782 78.9007C39.7341 78.9138 38.8959 79.2805 38.9053 79.7204C38.916 80.1608 39.7718 80.508 40.8164 80.495C43.3054 80.4635 45.7944 80.4321 48.2834 80.4006C49.3274 80.3874 50.1658 80.0208 50.1563 79.5809C50.1457 79.1406 49.2897 78.7934 48.2452 78.8063C45.7562 78.8378 43.2672 78.8692 40.7782 78.9007ZM311.083 52.3876C310.994 53.4066 311.273 54.4219 311.704 54.6536C312.135 54.8838 312.556 54.244 312.646 53.2258C312.693 52.6872 312.778 51.8017 312.893 50.6103C313.482 44.5267 314.844 30.4403 315.833 13.5L315.77 11.8244L314.216 11.883C307.263 11.4768 299.829 11.1334 292.27 10.9321C290.083 10.8738 288.123 10.8162 286.256 10.7611C278.269 10.5251 271.858 9.39199 256.582 9.43802C192.35 9.63172 128.169 11.6567 64.0406 10.2676C47.0836 9.90032 30.1755 9.81899 13.2159 9.8284L9.41129 9.97187L9.54434 13.5C9.54521 15.0647 9.54685 16.63 9.54911 18.1957C9.57141 33.645 10.3893 61.9638 10.4731 68.627C10.4862 69.672 10.8544 70.5106 11.2948 70.4999C11.735 70.4887 12.0804 69.6333 12.0674 68.5888C11.9842 61.9726 11.1676 33.748 11.1454 18.3567C11.1431 16.7373 11.1414 15.1184 11.1405 13.5L11.0653 11.5057L13.2159 11.4246C30.0855 11.4157 46.9029 11.4966 63.7703 11.8619C127.973 13.2526 192.361 13.1607 256.666 12.9668C271.794 12.9212 277.951 12.1164 285.909 12.3515C287.781 12.4067 289.751 12.4656 291.959 12.5245C299.637 12.729 307.181 13.0816 314.216 13.4978C313.246 29.932 311.927 43.5853 311.34 49.6657C311.222 50.8949 311.133 51.818 311.083 52.3876ZM283.74 68.0333C272.076 67.9126 255.495 68.1275 241.005 68.3164C233.938 68.4085 227.369 68.4957 222.109 68.5326C213.961 68.5899 208.831 68.9715 203.744 69.3504C203.689 69.3544 203.634 69.3583 203.58 69.3622C198.496 69.7409 193.408 70.1135 185.132 70.1722C176.788 70.2313 165.242 69.9719 153.596 69.7102C153.587 69.7102 153.578 69.7102 153.569 69.7102C141.985 69.4499 130.235 68.3787 121.744 68.4402C92.1539 68.6546 73.9087 69.7504 64.6834 70.6106C48.5463 72.1153 30.2437 70.4276 13.7579 72.3307C11.9397 72.7522 15.0064 73.9656 18.3582 73.6164C18.4793 73.6066 18.6003 73.5967 18.7213 73.5869C19.8741 73.4954 20.8828 73.4211 22.3033 73.3608C24.3616 73.3115 25.8934 73.3082 27.2913 73.3058C30.9591 73.2994 56.422 73.0096 65.4315 72.1695C74.1867 71.3533 92.0489 72.1847 121.828 71.969C130.162 71.9086 141.677 71.0428 153.323 71.3045C153.355 71.3052 153.387 71.3058 153.419 71.3065C164.98 71.5662 176.638 71.8286 185.121 71.7685C193.696 71.7077 199.016 71.3166 204.167 70.933C204.217 70.929 204.267 70.9251 204.317 70.9212C209.357 70.5458 214.251 70.1821 222.098 70.127C227.474 70.0892 234.12 70.0035 241.231 69.9107C255.659 69.7224 272.009 69.508 283.573 69.6276C284.617 69.6382 285.501 69.2895 285.547 68.8491C285.592 68.409 284.783 68.0442 283.74 68.0333ZM283.5 58.0958C250.725 56.3278 217.767 56.8241 185.449 58.6914C177.014 58.7512 165.242 58.8751 153.487 59.0001C153.354 59.0021 153.221 59.004 153.088 59.006C141.46 59.1296 129.883 59.2525 121.572 59.3127C91.9821 59.527 73.6687 59.8149 64.4432 60.675C55.8412 61.4771 53.4533 61.4794 49.9133 61.485C49.8168 61.4856 49.7204 61.4863 49.6239 61.4869C49.6176 61.4856 49.6111 61.4843 49.6048 61.483C49.4834 61.4625 49.3815 61.4507 49.329 61.4456C49.2221 61.4352 49.135 61.4314 49.1024 61.4299C49.0271 61.4265 48.9639 61.4263 48.9414 61.426C48.8494 61.4248 48.7443 61.4251 48.6765 61.426C48.0462 61.4339 46.0719 61.4822 44.5076 61.5479C42.9046 61.6152 41.7619 61.7019 40.5571 61.7975C40.4351 61.8074 40.3132 61.8172 40.1912 61.827C39.1052 61.9136 37.9235 62.0078 36.2216 62.1101C35.1847 62.1726 34.4479 62.5763 34.5753 63.0124C34.7035 63.4482 35.6466 63.7508 36.683 63.6887C38.4736 63.5811 39.7309 63.4809 40.8219 63.3938C40.9429 63.384 41.064 63.3742 41.185 63.3643C42.3381 63.2728 43.3485 63.1986 44.7697 63.1383C46.8275 63.089 48.3572 63.0856 49.7549 63.0832C53.4198 63.0768 56.1796 63.072 65.1885 62.232C73.9435 61.4156 91.7801 61.1227 121.561 60.907C129.888 60.8467 141.478 60.7239 153.097 60.6003C153.233 60.599 153.37 60.5977 153.506 60.5964C165.268 60.4713 177.022 60.3454 185.438 60.2858C218.241 60.0533 250.366 60.8518 283.33 59.6901C289.396 59.7529 294.94 59.7776 300.077 59.8002C305.148 59.8225 309.824 59.8431 314.216 59.8973L303.613 70.5C303.721 61.7995 303.96 54.211 304.603 46.8618C304.816 44.4372 304.996 38.0817 305.221 28.8974C305.286 26.206 305.355 23.2535 305.431 20.0626C305.48 17.9762 305.532 15.7869 305.587 13.5L314.216 22.1292C307.929 21.9789 300.904 21.8068 293.248 21.6029C291.06 21.5446 289.1 21.487 287.233 21.4318C279.246 21.1959 272.942 21.0083 257.666 21.0544C238.87 21.1111 207.377 21.5071 190.534 21.8113C182.098 21.9636 177.336 22.1047 173.967 22.2221C173.029 22.2548 172.204 22.2865 171.448 22.3145C169.47 22.3878 167.934 22.4439 165.922 22.4816C151.429 22.7528 141.282 22.566 124.658 22.1769C123.617 22.1527 122.708 22.4901 122.63 22.9298C122.551 23.3696 123.333 23.7466 124.374 23.7712C141.022 24.1609 151.324 24.3508 166.015 24.076C168.116 24.0366 169.76 23.9756 171.772 23.901C172.519 23.8733 173.315 23.8435 174.205 23.8125C177.518 23.6971 182.23 23.5571 190.621 23.4056C207.434 23.102 238.881 22.7072 257.619 22.6507C272.746 22.6051 278.928 22.7871 286.887 23.0222C288.758 23.0775 290.727 23.1364 292.934 23.1952C300.713 23.4025 307.849 23.5775 314.216 23.7298L303.986 13.5C303.934 15.6901 303.884 17.7892 303.837 19.7923C303.761 22.979 303.692 25.9246 303.626 28.6053C303.397 37.9746 303.222 43.9465 303.04 46.0236C302.373 53.6453 302.126 61.5588 302.016 70.5L314.216 58.3001C309.728 58.2449 304.982 58.2241 299.883 58.2019C294.803 58.1798 289.371 58.1565 283.5 58.0958ZM64.7477 22.5327C65.79 22.5552 66.6941 22.2158 66.768 21.7759C66.8416 21.336 66.0574 20.961 65.0153 20.9384C59.5104 20.8192 55.553 20.7208 52.4593 20.6435C46.7333 20.5005 43.9659 20.4308 39.8215 20.443C30.5291 20.4704 21.5148 20.4861 13.2159 20.4985L20.2144 13.5C20.2163 14.7563 20.2181 15.9963 20.2199 17.2183C20.2422 32.6672 20.26 45.2582 20.3437 51.9212C20.357 52.966 20.7251 53.8048 21.1655 53.7941C21.6054 53.7825 21.951 52.927 21.9381 51.883C21.8549 45.2668 21.8364 32.7706 21.8142 17.3793C21.8124 16.1055 21.8105 14.8119 21.8086 13.5L13.2159 22.0927C21.4869 22.0808 30.48 22.0667 39.7723 22.0393C43.792 22.0274 46.4047 22.092 52.0034 22.232C55.0941 22.3092 59.0959 22.4103 64.7477 22.5327Z" fill="#246C5D"/>
</svg>
