<svg width="183" height="48" viewBox="0 0 183 48" fill="none" xmlns="http://www.w3.org/2000/svg">
<g filter="url(#filter0_in_2067_1158)">
<path d="M18.55 22.45V21.95H31.65V32.6C30.7167 33.5667 29.6667 34.4 28.5 35.1C27.3333 35.7667 26.1 36.3167 24.8 36.75C23.5333 37.1833 22.25 37.5 20.95 37.7C19.6833 37.9 18.4667 38 17.3 38C15.3 38 13.4167 37.7333 11.65 37.2C9.91668 36.6667 8.33335 35.8833 6.90001 34.85C5.46668 33.7833 4.23335 32.5 3.20001 31C2.20001 29.4667 1.41668 27.7333 0.850012 25.8C0.283346 23.8333 1.23456e-05 21.65 1.23456e-05 19.25C1.23456e-05 16.4833 0.416679 14 1.25001 11.8C2.08335 9.56667 3.26668 7.65 4.80001 6.05C6.33335 4.45 8.18335 3.23333 10.35 2.4C12.5167 1.53333 14.9667 1.1 17.7 1.1C19.1333 1.1 20.5 1.2 21.8 1.4C23.1333 1.6 24.3833 1.9 25.55 2.3C26.7167 2.66666 27.8 3.1 28.8 3.6C29.8 4.1 30.7 4.63333 31.5 5.2L28.8 18.05H27.9L26.6 11.9C26.2 10 25.6667 8.41667 25 7.15C24.3667 5.85 23.6167 4.8 22.75 4C21.8833 3.2 20.9 2.63333 19.8 2.3C18.7 1.93333 17.5167 1.75 16.25 1.75C14.8833 1.75 13.65 2.16666 12.55 3C11.45 3.8 10.5 4.9 9.70001 6.3C8.93335 7.7 8.33335 9.33333 7.90001 11.2C7.46668 13.0333 7.25001 15 7.25001 17.1C7.25001 18.8667 7.40001 20.7 7.70001 22.6C8.03335 24.4667 8.50001 26.2833 9.10001 28.05C9.73335 29.7833 10.5333 31.35 11.5 32.75C12.5 34.1167 13.6667 35.2167 15 36.05C16.3333 36.85 17.85 37.25 19.55 37.25C20.25 37.25 21 37.1667 21.8 37C22.6333 36.8333 23.4833 36.5667 24.35 36.2V23.5L18.55 22.45ZM50.8512 11.5C52.8512 11.5 54.5679 11.7167 56.0012 12.15C57.4679 12.5833 58.6679 13.25 59.6012 14.15C60.5345 15.05 61.2179 16.1833 61.6512 17.55C62.0845 18.9167 62.3012 20.5167 62.3012 22.35V35.55C62.3012 35.95 62.3845 36.2667 62.5512 36.5C62.7512 36.7333 63.0179 36.85 63.3512 36.85C63.6845 36.85 64.0845 36.75 64.5512 36.55C65.0512 36.35 65.5512 36.0833 66.0512 35.75V36.25C65.6179 36.5833 65.1012 36.8833 64.5012 37.15C63.9345 37.4167 63.3179 37.6167 62.6512 37.75C62.0179 37.9167 61.3845 38 60.7512 38C59.0845 38 57.7512 37.5667 56.7512 36.7C55.7845 35.8 55.3012 34.35 55.3012 32.35C55.3012 31.8167 55.3012 31.4333 55.3012 31.2C55.3012 30.9333 55.3012 30.7333 55.3012 30.6C55.3012 30.4333 55.3012 30.25 55.3012 30.05L54.9012 29.75C54.2679 31.05 53.5179 32.2167 52.6512 33.25C51.8179 34.25 50.8845 35.1167 49.8512 35.85C48.8179 36.55 47.7512 37.0833 46.6512 37.45C45.5512 37.8167 44.4512 38 43.3512 38C42.1179 38 41.0012 37.7833 40.0012 37.35C39.0012 36.9167 38.2012 36.2833 37.6012 35.45C37.0012 34.6167 36.7012 33.6 36.7012 32.4C36.7012 29.6 38.2845 27.45 41.4512 25.95C44.6512 24.4167 49.2679 23.65 55.3012 23.65C55.3012 20.8167 55.1012 18.5833 54.7012 16.95C54.3012 15.3167 53.6012 14.15 52.6012 13.45C51.6345 12.75 50.2345 12.4 48.4012 12.4C47.3012 12.4 46.3179 12.5167 45.4512 12.75C44.5845 12.95 43.9012 13.1833 43.4012 13.45C42.9012 13.7167 42.6512 13.9667 42.6512 14.2C42.6512 14.3667 42.8345 14.55 43.2012 14.75C43.5679 14.95 44.2012 15.2167 45.1012 15.55C46.8679 16.1833 47.7512 17.1333 47.7512 18.4C47.7512 19.4667 47.2679 20.3 46.3012 20.9C45.3345 21.4667 44.1512 21.75 42.7512 21.75C41.3845 21.75 40.2179 21.4667 39.2512 20.9C38.3179 20.3 37.8512 19.4333 37.8512 18.3C37.8512 17.4667 38.2012 16.65 38.9012 15.85C39.6012 15.05 40.5512 14.3167 41.7512 13.65C42.9845 12.9833 44.3845 12.4667 45.9512 12.1C47.5179 11.7 49.1512 11.5 50.8512 11.5ZM55.3012 24.25C52.5012 24.25 50.2012 24.6167 48.4012 25.35C46.6012 26.0833 45.2679 27.0333 44.4012 28.2C43.5345 29.3333 43.1012 30.5667 43.1012 31.9C43.1012 32.7 43.2512 33.3667 43.5512 33.9C43.8512 34.4 44.2512 34.7833 44.7512 35.05C45.2512 35.2833 45.8345 35.4 46.5012 35.4C47.2345 35.4 48.0012 35.25 48.8012 34.95C49.6345 34.65 50.4512 34.1833 51.2512 33.55C52.0512 32.9167 52.8012 32.1167 53.5012 31.15C54.2345 30.1833 54.8345 29.0167 55.3012 27.65V24.25ZM78.3348 36.25L81.0348 36.75V37.25H68.6348V36.75L71.3348 36.25V2.35H68.3848V1.8L78.3348 -3.21865e-06V36.25ZM93.9109 36.25L96.611 36.75V37.25H84.2109V36.75L86.9109 36.25V2.35H83.9609V1.8L93.9109 -3.21865e-06V36.25ZM113.637 11.5C116.404 11.5 118.687 12.05 120.487 13.15C122.287 14.25 123.637 15.7167 124.537 17.55C125.437 19.3833 125.887 21.45 125.887 23.75H106.937V23.25L119.387 22.6C119.387 20.3667 119.187 18.4667 118.787 16.9C118.387 15.3333 117.754 14.15 116.887 13.35C116.054 12.5167 114.954 12.1 113.587 12.1C112.254 12.1 111.087 12.5333 110.087 13.4C109.12 14.2667 108.37 15.5833 107.837 17.35C107.337 19.0833 107.087 21.3167 107.087 24.05C107.087 25.55 107.27 27 107.637 28.4C108.037 29.7667 108.604 31.0167 109.337 32.15C110.104 33.25 111.037 34.1333 112.137 34.8C113.237 35.4333 114.52 35.75 115.987 35.75C116.887 35.75 117.787 35.6167 118.687 35.35C119.587 35.0833 120.437 34.7 121.237 34.2C122.037 33.7 122.77 33.1 123.437 32.4C124.104 31.6667 124.654 30.8167 125.087 29.85L125.637 30.35C124.87 31.9167 123.987 33.2 122.987 34.2C122.02 35.2 120.97 35.9833 119.837 36.55C118.704 37.0833 117.554 37.45 116.387 37.65C115.22 37.8833 114.07 38 112.937 38C110.87 38 109.037 37.65 107.437 36.95C105.837 36.25 104.47 35.3 103.337 34.1C102.237 32.8667 101.387 31.4833 100.787 29.95C100.22 28.3833 99.9371 26.7667 99.9371 25.1C99.9371 23 100.27 21.1167 100.937 19.45C101.637 17.7833 102.587 16.3667 103.787 15.2C105.02 14 106.47 13.0833 108.137 12.45C109.804 11.8167 111.637 11.5 113.637 11.5ZM129.964 37.25V36.75L132.664 36.1V13.85H129.764V13.3L139.664 11.5V19.35L140.064 19.75C140.531 18.65 140.981 17.6667 141.414 16.8C141.881 15.9 142.347 15.1667 142.814 14.6C143.614 13.5333 144.481 12.75 145.414 12.25C146.381 11.75 147.447 11.5 148.614 11.5C149.414 11.5 150.181 11.6667 150.914 12C151.647 12.3 152.247 12.7833 152.714 13.45C153.181 14.0833 153.414 14.9 153.414 15.9C153.414 16.6667 153.214 17.3667 152.814 18C152.414 18.6333 151.864 19.1333 151.164 19.5C150.464 19.8667 149.614 20.05 148.614 20.05C147.747 20.05 146.964 19.9 146.264 19.6C145.564 19.2667 145.014 18.8333 144.614 18.3C144.247 17.7333 144.064 17.1 144.064 16.4C144.064 16.1333 144.081 15.9 144.114 15.7C144.181 15.4667 144.231 15.25 144.264 15.05C144.331 14.85 144.364 14.6667 144.364 14.5C144.364 14.2667 144.281 14.15 144.114 14.15C143.814 14.15 143.447 14.4333 143.014 15C142.614 15.5667 142.131 16.4333 141.564 17.6C141.264 18.2667 140.947 19.0333 140.614 19.9C140.281 20.7667 139.964 21.6833 139.664 22.65V36.1L142.414 36.75V37.25H129.964ZM161.698 48C160.431 48 159.348 47.7833 158.448 47.35C157.581 46.95 156.914 46.3833 156.448 45.65C156.014 44.95 155.798 44.1667 155.798 43.3C155.798 42.7333 155.914 42.2333 156.148 41.8C156.414 41.4 156.748 41.05 157.148 40.75C157.581 40.4833 158.048 40.2833 158.548 40.15C159.081 40.0167 159.614 39.95 160.148 39.95C160.781 39.95 161.381 40.05 161.948 40.25C162.514 40.4833 162.981 40.8 163.348 41.2C163.714 41.6333 163.898 42.1833 163.898 42.85C163.898 43.3167 163.831 43.75 163.698 44.15C163.598 44.55 163.448 44.9167 163.248 45.25C163.048 45.5833 162.881 45.85 162.748 46.05C162.648 46.2833 162.598 46.4667 162.598 46.6C162.598 46.8333 162.898 46.95 163.498 46.95C164.098 46.95 164.714 46.7 165.348 46.2C165.981 45.7 166.581 44.9667 167.148 44C167.581 43.3333 168.048 42.4 168.548 41.2C169.048 40.0333 169.531 38.7167 169.998 37.25H166.498L156.698 13.25L153.748 12.8V12.25H167.198V12.8L164.298 13.25L171.598 31.55H172.248L175.498 22.4C175.664 21.8667 175.781 21.3 175.848 20.7C175.948 20.1 175.998 19.5 175.998 18.9C175.998 18.2333 175.931 17.55 175.798 16.85C175.698 16.1167 175.464 15.45 175.098 14.85C174.764 14.2167 174.298 13.7167 173.698 13.35C173.098 12.95 172.331 12.75 171.398 12.75V12.25H182.748V12.75L179.648 13.25L170.748 37.25C170.048 39.15 169.431 40.7167 168.898 41.95C168.364 43.1833 167.914 44.0667 167.548 44.6C166.914 45.6333 166.131 46.45 165.198 47.05C164.264 47.6833 163.098 48 161.698 48Z" fill="#C2C2C2" fill-opacity="0.73"/>
</g>
<defs>
<filter id="filter0_in_2067_1158" x="0" y="0" width="182.748" height="52.3" filterUnits="userSpaceOnUse" color-interpolation-filters="sRGB">
<feFlood flood-opacity="0" result="BackgroundImageFix"/>
<feBlend mode="normal" in="SourceGraphic" in2="BackgroundImageFix" result="shape"/>
<feColorMatrix in="SourceAlpha" type="matrix" values="0 0 0 0 0 0 0 0 0 0 0 0 0 0 0 0 0 0 127 0" result="hardAlpha"/>
<feOffset dy="13"/>
<feGaussianBlur stdDeviation="2.15"/>
<feComposite in2="hardAlpha" operator="arithmetic" k2="-1" k3="1"/>
<feColorMatrix type="matrix" values="0 0 0 0 0 0 0 0 0 0 0 0 0 0 0 0 0 0 0.44 0"/>
<feBlend mode="normal" in2="shape" result="effect1_innerShadow_2067_1158"/>
<feTurbulence type="fractalNoise" baseFrequency="2 2" stitchTiles="stitch" numOctaves="3" result="noise" seed="8743" />
<feColorMatrix in="noise" type="luminanceToAlpha" result="alphaNoise" />
<feComponentTransfer in="alphaNoise" result="coloredNoise1">
<feFuncA type="discrete" tableValues="0 0 0 0 1 1 1 1 1 1 1 1 1 1 1 1 1 1 1 1 1 1 1 1 1 1 1 1 1 1 1 1 1 1 1 1 1 1 1 1 1 1 1 1 1 1 0 0 0 0 0 0 0 0 0 0 0 0 0 0 0 0 0 0 0 0 0 0 0 0 0 0 0 0 0 0 0 0 0 0 0 0 0 0 0 0 0 0 0 0 0 0 0 0 0 0 0 0 0 0 "/>
</feComponentTransfer>
<feComposite operator="in" in2="effect1_innerShadow_2067_1158" in="coloredNoise1" result="noise1Clipped" />
<feFlood flood-color="#000000" result="color1Flood" />
<feComposite operator="in" in2="noise1Clipped" in="color1Flood" result="color1" />
<feMerge result="effect2_noise_2067_1158">
<feMergeNode in="effect1_innerShadow_2067_1158" />
<feMergeNode in="color1" />
</feMerge>
</filter>
</defs>
</svg>
