<svg width="845" height="37" viewBox="0 0 845 37" fill="none" xmlns="http://www.w3.org/2000/svg">
<g filter="url(#filter0_in_2017_52347)">
<path d="M10.2 36.15V35.65L13.1 35.05V1.50002H9.2C8.36667 1.50002 7.6 1.71669 6.9 2.15002C6.2 2.55002 5.6 3.21669 5.1 4.15002C4.63334 5.05002 4.23334 6.23336 3.9 7.70002L2.4 14.4H1.5L3.10317e-06 0.750024H33.55L32 14.4H31.15L29.65 7.85002C29.35 6.31669 28.9333 5.10002 28.4 4.20002C27.9 3.26669 27.3 2.58336 26.6 2.15002C25.9333 1.71669 25.1667 1.50002 24.3 1.50002H20.4V35.05L23.35 35.65V36.15H10.2ZM73.627 0.750024V1.25002L70.727 1.85002V35.05L73.627 35.65V36.15H60.727V35.65L63.377 35.05V1.85002L60.727 1.25002V0.750024H73.627ZM50.077 0.750024V1.25002L47.477 1.85002V35.05L50.077 35.65V36.15H37.227V35.65L40.127 35.05V1.85002L37.227 1.25002V0.750024H50.077ZM63.777 18.4V19.6H46.977V19.1L63.777 18.4ZM78.2426 36.15V35.65L81.1426 34.9V2.00002L78.2426 1.25002V0.750024H107.243L105.543 13.65H104.893L102.543 5.45002C102.143 4.11669 101.526 3.13336 100.693 2.50002C99.8592 1.83336 98.9426 1.50002 97.9426 1.50002H88.4926V17.8H93.0926C93.6259 17.8 94.1092 17.6667 94.5426 17.4C95.0092 17.1334 95.4259 16.7834 95.7926 16.35C96.3592 15.75 96.8092 14.9667 97.1426 14C97.4759 13.0334 97.6926 12.0334 97.7926 11H98.2926V23.65H97.7926L93.4926 18.4H88.4926V35.4H98.3426C99.4759 35.4 100.493 34.9834 101.393 34.15C102.293 33.2834 102.976 32.05 103.443 30.45L104.893 22.85H105.543L107.243 36.15H78.2426ZM128.69 36.15V35.65L131.69 35.05L145.29 0.750024H149.99L163.29 35.05L166.19 35.65V36.15H151.89V35.8L155.44 35.1L144.34 6.40002H143.79L139.04 19.1C138.307 20.9 137.74 22.6334 137.34 24.3C136.973 25.9667 136.79 27.4167 136.79 28.65C136.79 29.9834 137.023 31.1834 137.49 32.25C137.957 33.3167 138.69 34.15 139.69 34.75C140.69 35.35 141.99 35.65 143.59 35.65V36.15H128.69ZM137.24 21.8V21.3L150.59 20.6V21.8H137.24ZM168.613 36.15V35.65L172.113 35.05V5.45002C172.113 4.65002 171.796 3.88336 171.163 3.15002C170.53 2.38336 169.68 1.75002 168.613 1.25002V0.750024H178.163L199.163 27.8H199.913V15.65C199.913 14.35 199.796 13.1 199.563 11.9C199.33 10.6667 198.963 9.50002 198.463 8.40002C197.996 7.30002 197.396 6.30002 196.663 5.40002C195.963 4.46669 195.113 3.65002 194.113 2.95002C193.146 2.25002 192.046 1.68336 190.813 1.25002V0.750024H204.563V1.25002L200.663 1.85002V36.15H196.713L173.513 6.45002H172.863V18C172.863 19.6334 172.98 21.1834 173.213 22.65C173.446 24.1167 173.813 25.5 174.313 26.8C174.846 28.0667 175.513 29.25 176.313 30.35C177.113 31.45 178.08 32.45 179.213 33.35C180.38 34.2167 181.713 34.9834 183.213 35.65V36.15H168.613ZM206.327 36.15V35.65L209.327 35.05L222.927 0.750024H227.627L240.927 35.05L243.827 35.65V36.15H229.527V35.8L233.077 35.1L221.977 6.40002H221.427L216.677 19.1C215.943 20.9 215.377 22.6334 214.977 24.3C214.61 25.9667 214.427 27.4167 214.427 28.65C214.427 29.9834 214.66 31.1834 215.127 32.25C215.593 33.3167 216.327 34.15 217.327 34.75C218.327 35.35 219.627 35.65 221.227 35.65V36.15H206.327ZM214.877 21.8V21.3L228.227 20.6V21.8H214.877ZM252.143 36.15V35.65L255.043 35.05V1.50002H251.143C250.31 1.50002 249.543 1.71669 248.843 2.15002C248.143 2.55002 247.543 3.21669 247.043 4.15002C246.577 5.05002 246.177 6.23336 245.843 7.70002L244.343 14.4H243.443L241.943 0.750024H275.493L273.943 14.4H273.093L271.593 7.85002C271.293 6.31669 270.877 5.10002 270.343 4.20002C269.843 3.26669 269.243 2.58336 268.543 2.15002C267.877 1.71669 267.11 1.50002 266.243 1.50002H262.343V35.05L265.293 35.65V36.15H252.143ZM295.637 2.19345e-05C298.037 2.19345e-05 300.253 0.383355 302.287 1.15002C304.32 1.91669 306.087 3.06669 307.587 4.60002C309.087 6.10002 310.253 8.00002 311.087 10.3C311.92 12.6 312.337 15.3 312.337 18.4C312.337 21.4334 311.937 24.1167 311.137 26.45C310.337 28.75 309.187 30.6667 307.687 32.2C306.187 33.7334 304.42 34.9 302.387 35.7C300.353 36.5 298.103 36.9 295.637 36.9C293.137 36.9 290.853 36.5 288.787 35.7C286.72 34.9 284.937 33.7334 283.437 32.2C281.937 30.6334 280.77 28.7 279.937 26.4C279.137 24.0667 278.737 21.4 278.737 18.4C278.737 15.5667 279.137 13.0167 279.937 10.75C280.737 8.48336 281.87 6.55002 283.337 4.95002C284.837 3.35002 286.62 2.13336 288.687 1.30002C290.753 0.433356 293.07 2.19345e-05 295.637 2.19345e-05ZM295.637 0.600023C294.07 0.600023 292.703 0.96669 291.537 1.70002C290.37 2.40002 289.387 3.48336 288.587 4.95002C287.82 6.41669 287.237 8.25002 286.837 10.45C286.437 12.65 286.237 15.25 286.237 18.25C286.237 21.25 286.437 23.8834 286.837 26.15C287.237 28.4167 287.82 30.3 288.587 31.8C289.387 33.2667 290.37 34.3834 291.537 35.15C292.703 35.8834 294.07 36.25 295.637 36.25C297.17 36.25 298.503 35.8834 299.637 35.15C300.803 34.4167 301.77 33.3167 302.537 31.85C303.303 30.35 303.87 28.4834 304.237 26.25C304.637 23.9834 304.837 21.3167 304.837 18.25C304.837 15.2167 304.637 12.6 304.237 10.4C303.87 8.16669 303.303 6.33336 302.537 4.90002C301.77 3.46669 300.803 2.40002 299.637 1.70002C298.503 0.96669 297.17 0.600023 295.637 0.600023ZM316.757 36.15V35.65L320.557 35.05V1.90002L317.007 1.25002V0.750024H327.657L340.707 29.75L340.007 28.9H341.557L341.007 29.75L350.657 0.750024H361.157V1.25002L358.207 1.85002V35.05L361.157 35.65V36.15H347.657V35.65L350.907 35.05V6.15002H350.157L340.007 36.15H335.557L322.107 6.90002H321.307V17.55C321.307 18.85 321.391 20.2667 321.557 21.8C321.757 23.3 322.041 24.8167 322.407 26.35C322.807 27.85 323.341 29.25 324.007 30.55C324.674 31.85 325.491 32.95 326.457 33.85C327.424 34.75 328.557 35.35 329.857 35.65V36.15H316.757ZM373.768 36.15V35.65L376.668 34.9V21.9L365.618 1.85002L362.718 1.25002V0.750024H377.568V1.25002L373.718 1.80002L383.168 18.85H384.118L388.168 12.1C388.735 11.0667 389.168 10.1 389.468 9.20002C389.768 8.26669 389.918 7.48336 389.918 6.85002C389.918 5.61669 389.518 4.53336 388.718 3.60002C387.952 2.66669 386.702 1.88336 384.968 1.25002V0.750024H397.168V1.25002L394.368 1.85002L384.018 20.55V34.9L386.918 35.65V36.15H373.768ZM434.895 2.19345e-05C437.295 2.19345e-05 439.511 0.383355 441.545 1.15002C443.578 1.91669 445.345 3.06669 446.845 4.60002C448.345 6.10002 449.511 8.00002 450.345 10.3C451.178 12.6 451.595 15.3 451.595 18.4C451.595 21.4334 451.195 24.1167 450.395 26.45C449.595 28.75 448.445 30.6667 446.945 32.2C445.445 33.7334 443.678 34.9 441.645 35.7C439.611 36.5 437.361 36.9 434.895 36.9C432.395 36.9 430.111 36.5 428.045 35.7C425.978 34.9 424.195 33.7334 422.695 32.2C421.195 30.6334 420.028 28.7 419.195 26.4C418.395 24.0667 417.995 21.4 417.995 18.4C417.995 15.5667 418.395 13.0167 419.195 10.75C419.995 8.48336 421.128 6.55002 422.595 4.95002C424.095 3.35002 425.878 2.13336 427.945 1.30002C430.011 0.433356 432.328 2.19345e-05 434.895 2.19345e-05ZM434.895 0.600023C433.328 0.600023 431.961 0.96669 430.795 1.70002C429.628 2.40002 428.645 3.48336 427.845 4.95002C427.078 6.41669 426.495 8.25002 426.095 10.45C425.695 12.65 425.495 15.25 425.495 18.25C425.495 21.25 425.695 23.8834 426.095 26.15C426.495 28.4167 427.078 30.3 427.845 31.8C428.645 33.2667 429.628 34.3834 430.795 35.15C431.961 35.8834 433.328 36.25 434.895 36.25C436.428 36.25 437.761 35.8834 438.895 35.15C440.061 34.4167 441.028 33.3167 441.795 31.85C442.561 30.35 443.128 28.4834 443.495 26.25C443.895 23.9834 444.095 21.3167 444.095 18.25C444.095 15.2167 443.895 12.6 443.495 10.4C443.128 8.16669 442.561 6.33336 441.795 4.90002C441.028 3.46669 440.061 2.40002 438.895 1.70002C437.761 0.96669 436.428 0.600023 434.895 0.600023ZM456.465 36.15V35.65L459.365 34.9V2.00002L456.465 1.25002V0.750024H485.465L483.765 13.65H483.115L480.765 5.45002C480.365 4.11669 479.749 3.13336 478.915 2.50002C478.082 1.83336 477.165 1.50002 476.165 1.50002H466.715V17.8H471.765C472.299 17.8 472.782 17.6667 473.215 17.4C473.682 17.1334 474.082 16.7834 474.415 16.35C474.982 15.75 475.482 14.9667 475.915 14C476.382 13.0334 476.649 12.0334 476.715 11H477.215V23.65H476.715L472.115 18.4H466.715V35.05L469.615 35.65V36.15H456.465ZM515.132 36.15V35.65L518.032 35.05V1.50002H514.132C513.298 1.50002 512.532 1.71669 511.832 2.15002C511.132 2.55002 510.532 3.21669 510.032 4.15002C509.565 5.05002 509.165 6.23336 508.832 7.70002L507.332 14.4H506.432L504.932 0.750024H538.482L536.932 14.4H536.082L534.582 7.85002C534.282 6.31669 533.865 5.10002 533.332 4.20002C532.832 3.26669 532.232 2.58336 531.532 2.15002C530.865 1.71669 530.098 1.50002 529.232 1.50002H525.332V35.05L528.282 35.65V36.15H515.132ZM578.559 0.750024V1.25002L575.659 1.85002V35.05L578.559 35.65V36.15H565.659V35.65L568.309 35.05V1.85002L565.659 1.25002V0.750024H578.559ZM555.009 0.750024V1.25002L552.409 1.85002V35.05L555.009 35.65V36.15H542.159V35.65L545.059 35.05V1.85002L542.159 1.25002V0.750024H555.009ZM568.709 18.4V19.6H551.909V19.1L568.709 18.4ZM583.174 36.15V35.65L586.074 34.9V2.00002L583.174 1.25002V0.750024H612.174L610.474 13.65H609.824L607.474 5.45002C607.074 4.11669 606.458 3.13336 605.624 2.50002C604.791 1.83336 603.874 1.50002 602.874 1.50002H593.424V17.8H598.024C598.558 17.8 599.041 17.6667 599.474 17.4C599.941 17.1334 600.358 16.7834 600.724 16.35C601.291 15.75 601.741 14.9667 602.074 14C602.408 13.0334 602.624 12.0334 602.724 11H603.224V23.65H602.724L598.424 18.4H593.424V35.4H603.274C604.408 35.4 605.424 34.9834 606.324 34.15C607.224 33.2834 607.908 32.05 608.374 30.45L609.824 22.85H610.474L612.174 36.15H583.174ZM649.921 36.9C648.321 36.9 646.688 36.75 645.021 36.45C643.355 36.15 641.721 35.7334 640.121 35.2C638.555 34.6334 637.088 33.9834 635.721 33.25L636.721 21.6H637.521L640.121 28.65C640.621 30.2834 641.371 31.6667 642.371 32.8C643.405 33.9 644.621 34.7334 646.021 35.3C647.455 35.8667 649.005 36.15 650.671 36.15C652.171 36.15 653.438 35.95 654.471 35.55C655.538 35.1167 656.355 34.5167 656.921 33.75C657.488 32.9834 657.771 32.0667 657.771 31C657.771 29.8 657.471 28.7334 656.871 27.8C656.271 26.8334 655.255 25.8667 653.821 24.9C652.421 23.9 650.521 22.8334 648.121 21.7C645.055 20.1 642.621 18.6667 640.821 17.4C639.055 16.1334 637.788 14.8834 637.021 13.65C636.255 12.3834 635.871 11.0334 635.871 9.60002C635.871 8.20002 636.188 6.91669 636.821 5.75002C637.488 4.58336 638.438 3.56669 639.671 2.70002C640.905 1.83336 642.388 1.16669 644.121 0.700022C645.855 0.233355 647.788 2.19345e-05 649.921 2.19345e-05C651.855 2.19345e-05 653.655 0.166688 655.321 0.500021C657.021 0.833356 658.555 1.28336 659.921 1.85002C661.321 2.41669 662.488 3.06669 663.421 3.80002L661.571 14.75H660.771L659.571 10.25C658.905 7.98336 658.088 6.16669 657.121 4.80002C656.155 3.40002 655.021 2.38336 653.721 1.75002C652.455 1.08336 650.971 0.750024 649.271 0.750024C647.605 0.750024 646.171 0.950024 644.971 1.35002C643.805 1.75002 642.905 2.33336 642.271 3.10002C641.671 3.86669 641.371 4.78336 641.371 5.85002C641.371 6.95002 641.721 8.00002 642.421 9.00002C643.121 9.96669 644.305 11 645.971 12.1C647.638 13.1667 649.888 14.3834 652.721 15.75C654.955 16.7834 656.805 17.7667 658.271 18.7C659.771 19.6 660.971 20.5 661.871 21.4C662.805 22.3 663.471 23.2167 663.871 24.15C664.271 25.0834 664.471 26.1167 664.471 27.25C664.471 28.65 664.188 29.8834 663.621 30.95C663.088 31.9834 662.355 32.8834 661.421 33.65C660.488 34.3834 659.405 35 658.171 35.5C656.938 35.9667 655.605 36.3167 654.171 36.55C652.771 36.7834 651.355 36.9 649.921 36.9ZM678.022 36.15V35.65L680.922 35.05V1.50002H677.022C676.189 1.50002 675.422 1.71669 674.722 2.15002C674.022 2.55002 673.422 3.21669 672.922 4.15002C672.456 5.05002 672.056 6.23336 671.722 7.70002L670.222 14.4H669.322L667.822 0.750024H701.372L699.822 14.4H698.972L697.472 7.85002C697.172 6.31669 696.756 5.10002 696.222 4.20002C695.722 3.26669 695.122 2.58336 694.422 2.15002C693.756 1.71669 692.989 1.50002 692.122 1.50002H688.222V35.05L691.172 35.65V36.15H678.022ZM734.099 36.9C733.033 36.9 732.016 36.6334 731.049 36.1C730.116 35.5667 729.216 34.7667 728.349 33.7C727.516 32.6334 726.699 31.3 725.899 29.7C724.966 27.7334 723.966 25.8334 722.899 24C721.833 22.1334 720.666 20.3667 719.399 18.7H715.299V35.05L718.199 35.65V36.15H705.049V35.65L707.949 35.05V1.85002L705.049 1.25002V0.750024H723.649C726.283 0.750024 728.499 1.06669 730.299 1.70002C732.133 2.30002 733.499 3.21669 734.399 4.45002C735.299 5.68336 735.749 7.23336 735.749 9.10002C735.749 10.8667 735.183 12.4167 734.049 13.75C732.949 15.0834 731.316 16.1334 729.149 16.9C726.983 17.6667 724.333 18.1167 721.199 18.25V18.65C722.533 18.7167 723.733 18.9167 724.799 19.25C725.866 19.55 726.833 19.9834 727.699 20.55C728.566 21.1167 729.316 21.8334 729.949 22.7C730.616 23.5334 731.199 24.5167 731.699 25.65C732.566 27.65 733.333 29.3167 733.999 30.65C734.666 31.9834 735.249 33.0167 735.749 33.75C736.283 34.45 736.733 34.8667 737.099 35C737.466 35.1667 737.816 35.2 738.149 35.1V35.6C737.749 35.9334 737.299 36.1834 736.799 36.35C736.333 36.55 735.849 36.6834 735.349 36.75C734.883 36.85 734.466 36.9 734.099 36.9ZM718.999 17.65C720.533 17.65 721.899 17.4667 723.099 17.1C724.299 16.7 725.316 16.15 726.149 15.45C726.983 14.7167 727.616 13.8334 728.049 12.8C728.483 11.7667 728.699 10.5834 728.699 9.25002C728.699 7.58336 728.399 6.18336 727.799 5.05002C727.199 3.91669 726.316 3.05002 725.149 2.45002C724.016 1.85002 722.616 1.55002 720.949 1.55002C719.749 1.55002 718.683 1.56669 717.749 1.60002C716.849 1.63336 716.033 1.71669 715.299 1.85002V17.4C715.699 17.5 716.166 17.5667 716.699 17.6C717.266 17.6334 718.033 17.65 718.999 17.65ZM757.844 2.19345e-05C760.244 2.19345e-05 762.46 0.383355 764.494 1.15002C766.527 1.91669 768.294 3.06669 769.794 4.60002C771.294 6.10002 772.46 8.00002 773.294 10.3C774.127 12.6 774.544 15.3 774.544 18.4C774.544 21.4334 774.144 24.1167 773.344 26.45C772.544 28.75 771.394 30.6667 769.894 32.2C768.394 33.7334 766.627 34.9 764.594 35.7C762.56 36.5 760.31 36.9 757.844 36.9C755.344 36.9 753.06 36.5 750.994 35.7C748.927 34.9 747.144 33.7334 745.644 32.2C744.144 30.6334 742.977 28.7 742.144 26.4C741.344 24.0667 740.944 21.4 740.944 18.4C740.944 15.5667 741.344 13.0167 742.144 10.75C742.944 8.48336 744.077 6.55002 745.544 4.95002C747.044 3.35002 748.827 2.13336 750.894 1.30002C752.96 0.433356 755.277 2.19345e-05 757.844 2.19345e-05ZM757.844 0.600023C756.277 0.600023 754.91 0.96669 753.744 1.70002C752.577 2.40002 751.594 3.48336 750.794 4.95002C750.027 6.41669 749.444 8.25002 749.044 10.45C748.644 12.65 748.444 15.25 748.444 18.25C748.444 21.25 748.644 23.8834 749.044 26.15C749.444 28.4167 750.027 30.3 750.794 31.8C751.594 33.2667 752.577 34.3834 753.744 35.15C754.91 35.8834 756.277 36.25 757.844 36.25C759.377 36.25 760.71 35.8834 761.844 35.15C763.01 34.4167 763.977 33.3167 764.744 31.85C765.51 30.35 766.077 28.4834 766.444 26.25C766.844 23.9834 767.044 21.3167 767.044 18.25C767.044 15.2167 766.844 12.6 766.444 10.4C766.077 8.16669 765.51 6.33336 764.744 4.90002C763.977 3.46669 763.01 2.40002 761.844 1.70002C760.71 0.96669 759.377 0.600023 757.844 0.600023ZM807.764 36.9C806.831 36.9 805.964 36.6834 805.164 36.25C804.364 35.85 803.581 35.1667 802.814 34.2C802.048 33.2334 801.198 31.9167 800.264 30.25C799.698 29.1834 799.114 28.1667 798.514 27.2C797.914 26.2334 797.281 25.3 796.614 24.4C795.948 23.4667 795.214 22.55 794.414 21.65C793.614 20.75 792.731 19.8334 791.764 18.9H789.664V35.05L792.564 35.65V36.15H779.414V35.65L782.314 35.05V1.85002L779.414 1.25002V0.750024H789.664V18.25C790.098 18.25 790.531 18.2334 790.964 18.2C791.398 18.1667 791.831 18.1334 792.264 18.1C793.198 17.9667 794.081 17.6167 794.914 17.05C795.781 16.4834 796.598 15.7667 797.364 14.9C798.131 14.0334 798.798 13.1 799.364 12.1C799.931 11.2334 800.398 10.35 800.764 9.45002C801.131 8.55002 801.414 7.68336 801.614 6.85002C801.814 6.01669 801.914 5.26669 801.914 4.60002C801.914 3.60002 801.598 2.80002 800.964 2.20002C800.364 1.56669 799.431 1.25002 798.164 1.25002V0.750024H811.514V1.25002L808.664 1.85002C808.664 3.01669 808.448 4.23336 808.014 5.50002C807.614 6.73336 807.048 7.95002 806.314 9.15002C805.614 10.35 804.764 11.4834 803.764 12.55C802.698 13.65 801.548 14.6334 800.314 15.5C799.081 16.3667 797.881 17.05 796.714 17.55C795.581 18.05 794.564 18.3667 793.664 18.5V18.75C795.298 18.8167 796.731 19 797.964 19.3C799.231 19.6 800.348 20.0667 801.314 20.7C802.281 21.3334 803.131 22.1667 803.864 23.2C804.631 24.2 805.348 25.4334 806.014 26.9C806.814 28.7 807.514 30.1667 808.114 31.3C808.748 32.4 809.331 33.25 809.864 33.85C810.431 34.4167 810.981 34.8167 811.514 35.05C811.848 35.1834 812.181 35.2 812.514 35.1V35.6C812.014 36 811.481 36.2834 810.914 36.45C810.381 36.65 809.831 36.7667 809.264 36.8C808.731 36.8667 808.231 36.9 807.764 36.9ZM815.45 36.15V35.65L818.35 34.9V2.00002L815.45 1.25002V0.750024H844.45L842.75 13.65H842.1L839.75 5.45002C839.35 4.11669 838.733 3.13336 837.9 2.50002C837.066 1.83336 836.15 1.50002 835.15 1.50002H825.7V17.8H830.3C830.833 17.8 831.316 17.6667 831.75 17.4C832.216 17.1334 832.633 16.7834 833 16.35C833.566 15.75 834.016 14.9667 834.35 14C834.683 13.0334 834.9 12.0334 835 11H835.5V23.65H835L830.7 18.4H825.7V35.4H835.55C836.683 35.4 837.7 34.9834 838.6 34.15C839.5 33.2834 840.183 32.05 840.65 30.45L842.1 22.85H842.75L844.45 36.15H815.45Z" fill="#C2C2C2" fill-opacity="0.73"/>
</g>
<defs>
<filter id="filter0_in_2017_52347" x="0" y="0" width="844.45" height="41.2" filterUnits="userSpaceOnUse" color-interpolation-filters="sRGB">
<feFlood flood-opacity="0" result="BackgroundImageFix"/>
<feBlend mode="normal" in="SourceGraphic" in2="BackgroundImageFix" result="shape"/>
<feColorMatrix in="SourceAlpha" type="matrix" values="0 0 0 0 0 0 0 0 0 0 0 0 0 0 0 0 0 0 127 0" result="hardAlpha"/>
<feOffset dy="13"/>
<feGaussianBlur stdDeviation="2.15"/>
<feComposite in2="hardAlpha" operator="arithmetic" k2="-1" k3="1"/>
<feColorMatrix type="matrix" values="0 0 0 0 0 0 0 0 0 0 0 0 0 0 0 0 0 0 0.44 0"/>
<feBlend mode="normal" in2="shape" result="effect1_innerShadow_2017_52347"/>
<feTurbulence type="fractalNoise" baseFrequency="2 2" stitchTiles="stitch" numOctaves="3" result="noise" seed="8743" />
<feColorMatrix in="noise" type="luminanceToAlpha" result="alphaNoise" />
<feComponentTransfer in="alphaNoise" result="coloredNoise1">
<feFuncA type="discrete" tableValues="0 0 0 0 1 1 1 1 1 1 1 1 1 1 1 1 1 1 1 1 1 1 1 1 1 1 1 1 1 1 1 1 1 1 1 1 1 1 1 1 1 1 1 1 1 1 0 0 0 0 0 0 0 0 0 0 0 0 0 0 0 0 0 0 0 0 0 0 0 0 0 0 0 0 0 0 0 0 0 0 0 0 0 0 0 0 0 0 0 0 0 0 0 0 0 0 0 0 0 0 "/>
</feComponentTransfer>
<feComposite operator="in" in2="effect1_innerShadow_2017_52347" in="coloredNoise1" result="noise1Clipped" />
<feFlood flood-color="#000000" result="color1Flood" />
<feComposite operator="in" in2="noise1Clipped" in="color1Flood" result="color1" />
<feMerge result="effect2_noise_2017_52347">
<feMergeNode in="effect1_innerShadow_2017_52347" />
<feMergeNode in="color1" />
</feMerge>
</filter>
</defs>
</svg>
